<svg id="Layer_1" data-name="Layer 1" xmlns="http://www.w3.org/2000/svg" xmlns:xlink="http://www.w3.org/1999/xlink" viewBox="0 0 1405.47 285.25"><defs><style>.cls-1,.cls-16,.cls-17,.cls-19,.cls-2,.cls-25,.cls-29,.cls-30,.cls-32,.cls-33,.cls-34,.cls-35,.cls-36{fill:none;}.cls-16,.cls-19,.cls-2{stroke:#23252b;}.cls-16,.cls-17,.cls-19,.cls-2,.cls-25,.cls-29,.cls-30,.cls-32,.cls-33,.cls-34,.cls-35,.cls-36{stroke-miterlimit:10;}.cls-10,.cls-3{fill:#ff5a5a;}.cls-4{fill:url(#linear-gradient);}.cls-5,.cls-9{fill:#b21d28;}.cls-6{fill:url(#linear-gradient-2);}.cls-7{fill:#fff;}.cls-11,.cls-26,.cls-8{fill:#23252b;}.cls-16,.cls-18,.cls-8{opacity:0.3;}.cls-9{opacity:0.5;}.cls-10,.cls-26{opacity:0.2;}.cls-12{fill:url(#linear-gradient-3);}.cls-13{fill:url(#radial-gradient);}.cls-14{clip-path:url(#clip-path);}.cls-15{fill:url(#linear-gradient-4);}.cls-16,.cls-17,.cls-19,.cls-29,.cls-30,.cls-35{stroke-width:2px;}.cls-17,.cls-32,.cls-33,.cls-35{stroke:#fff;}.cls-20{fill:#91ac39;}.cls-21{fill:#fffdfa;}.cls-22{fill:#c82b34;}.cls-23{fill:#272c34;}.cls-24{fill:url(#linear-gradient-5);}.cls-25{stroke:#fffdfa;}.cls-27{fill:#22a2df;}.cls-28{fill:#ff6a52;}.cls-29,.cls-34{stroke:#ff5a5a;}.cls-30,.cls-36{stroke:#c82b34;}.cls-31{fill:url(#linear-gradient-6);}.cls-33,.cls-35{stroke-linecap:round;}.cls-34{stroke-width:3px;}</style><linearGradient id="linear-gradient" x1="744.36" y1="146.53" x2="759.24" y2="146.53" gradientUnits="userSpaceOnUse"><stop offset="0" stop-color="#ff5a5a"/><stop offset="0.21" stop-color="#fa5657"/><stop offset="0.45" stop-color="#eb4a4d"/><stop offset="0.72" stop-color="#d3373d"/><stop offset="1" stop-color="#b21d28"/></linearGradient><linearGradient id="linear-gradient-2" x1="776.02" y1="148.6" x2="785.75" y2="148.6" gradientUnits="userSpaceOnUse"><stop offset="0" stop-color="#b21d28"/><stop offset="0.28" stop-color="#d3373d"/><stop offset="0.55" stop-color="#eb4a4d"/><stop offset="0.79" stop-color="#fa5657"/><stop offset="1" stop-color="#ff5a5a"/></linearGradient><linearGradient id="linear-gradient-3" x1="574.92" y1="107.3" x2="574.92" y2="49.29" gradientUnits="userSpaceOnUse"><stop offset="0" stop-color="#91ac39" stop-opacity="0.2"/><stop offset="0.29" stop-color="#91ac39" stop-opacity="0.11"/><stop offset="0.67" stop-color="#91ac39" stop-opacity="0.03"/><stop offset="1" stop-color="#91ac39" stop-opacity="0"/></linearGradient><radialGradient id="radial-gradient" cx="1299.7" cy="113.88" r="21.81" xlink:href="#linear-gradient-2"/><clipPath id="clip-path" transform="translate(-63.44 -64.3)"><path id="SVGID" class="cls-1" d="M1309.82,108.31h0a1.66,1.66,0,0,1-1.7-.53l-.91-1.08a1.66,1.66,0,0,0-2.3-.23l-3.86,3.05a1.66,1.66,0,0,0-.63,1.3v1.86a1.66,1.66,0,0,0,2,1.63l.5-.1a1.66,1.66,0,0,1,1.19.22l4.45,2.75a1.66,1.66,0,0,0,2.38-.71l.85-1.81a1.66,1.66,0,0,0,.16-.71v-4A1.66,1.66,0,0,0,1309.82,108.31Z"/></clipPath><linearGradient id="linear-gradient-4" x1="1308.24" y1="39.02" x2="1304.37" y2="42.24" gradientUnits="userSpaceOnUse"><stop offset="0" stop-color="#b21d28"/><stop offset="0.15" stop-color="#ce333a"/><stop offset="0.32" stop-color="#e34448"/><stop offset="0.5" stop-color="#f35052"/><stop offset="0.7" stop-color="#fc5858"/><stop offset="1" stop-color="#ff5a5a"/></linearGradient><linearGradient id="linear-gradient-5" x1="3092.73" y1="223.48" x2="3164.2" y2="223.48" gradientTransform="matrix(-1, 0.02, 0.02, 1, 3524.86, -43.45)" gradientUnits="userSpaceOnUse"><stop offset="0" stop-color="#91ac39" stop-opacity="0"/><stop offset="1" stop-color="#91ac39" stop-opacity="0.2"/></linearGradient><linearGradient id="linear-gradient-6" x1="-123.24" y1="48.01" x2="-82.62" y2="48.01" gradientTransform="matrix(-0.99, 0.1, 0.1, 0.99, 33.43, 20.83)" xlink:href="#linear-gradient-5"/></defs><title>illo_sofia-black</title><path class="cls-2" d="M902.38,130.7l45.17,29.82A184.13,184.13,0,0,0,1075.74,185l1-.17" transform="translate(-63.44 -64.3)"/><path class="cls-2" d="M900.11,142.19l37.72,24.53a125.08,125.08,0,0,0,138.88.77h0" transform="translate(-63.44 -64.3)"/><rect class="cls-3" x="764.47" y="130.57" width="5.6" height="4.32"/><path class="cls-3" d="M810.08,218.89" transform="translate(-63.44 -64.3)"/><polygon class="cls-4" points="759.24 137.14 757.23 137.68 754.02 142.76 748.97 148.09 744.36 154.11 745.74 155.91 750.31 153.54 753.31 151.4 758.69 146.51 759.24 137.14"/><polygon class="cls-3" points="747.5 150.01 742.17 152.51 739.99 155.46 741.42 157.75 750.62 154.04 747.5 150.01"/><polygon class="cls-5" points="743.34 156.98 745.75 157.35 746.45 155.08 744.13 155.91 743.34 156.98"/><polygon class="cls-6" points="778.6 138.37 781.11 143.23 784.72 149.93 784.72 153.6 785.75 158.82 783.07 158.04 781.43 153.53 777.11 148.59 776.02 142.2 778.6 138.37"/><polygon class="cls-5" points="783.43 157.14 781.56 158.82 780.88 160.81 782.78 161.72 785.17 161.72 786 160.81 785.42 158.49 783.43 157.14"/><path class="cls-3" d="M840.1,238.7l-1.74-15.2-2.25-2.13-3.93-2.77h-7.47l-.77,1.61-.84,5s-1.67,12.82-1.67,13.33c0,.31-.21,6-.38,10.28a15.36,15.36,0,0,0,6.84,3.2l0-10.19.45-4.19,1.42-4.12.77-1.22,2.36,3.41.54,4.9L835.54,252a15.18,15.18,0,0,0,6.11-2.91Z" transform="translate(-63.44 -64.3)"/><polygon class="cls-5" points="770.48 133.25 763.39 133.25 764 156.96 768.36 157.62 770.77 133.39 770.48 133.25"/><polygon class="cls-7" points="776.34 144.97 778.92 137.43 770.77 133.39 768.36 157.62 774.22 158.49 776.34 144.97"/><polygon class="cls-7" points="757.4 136.98 759.59 156.3 764 156.96 763.39 133.25 757.4 136.98"/><polygon class="cls-5" points="759.76 156.96 772.14 159.62 773.64 168.88 778.92 168.88 777.22 159.71 769.38 155.91 759.15 154.7 759.76 156.96"/><polygon class="cls-8" points="777.75 167.9 774.95 167.72 774.28 161.74 777.09 162.81 777.75 167.9"/><polygon class="cls-5" points="775.62 143.86 771.17 142.79 771.17 141.72 775.62 142.79 775.62 143.86"/><polygon class="cls-5" points="774.38 144.93 771.17 144.16 771.17 143.39 774.38 144.16 774.38 144.93"/><polygon class="cls-9" points="758.61 176.62 762.7 177.92 762.7 172.42 758.8 170.68 758.61 176.62"/><polygon class="cls-9" points="775.72 185.3 777.38 184.45 776.72 178.39 774.64 180 775.72 185.3"/><polygon class="cls-10" points="757.34 98.11 757.35 98.17 757.35 98.02 757.34 98.11"/><polygon class="cls-5" points="762.94 126.47 762.62 125.71 763.08 122.63 763.75 121.15 764.86 120.67 764.86 120.94 766.76 120.78 766.87 120.97 768.81 121.38 768.81 121.69 770.28 122.63 770.19 122.95 770.99 123.88 771.36 124.14 771.2 125.3 771.46 126.03 771.27 126.82 771.46 128.41 771.17 129.19 771.36 130.4 770.99 130.63 770.49 131.3 770.09 131.77 769.93 131.98 762.94 126.47"/><polygon class="cls-3" points="762.87 124.28 762.62 126.66 762.34 127.36 762.61 128.46 762.61 129.19 763.01 131.82 764.05 134.49 764.61 135.08 766.45 135.08 768.25 133.66 769.51 132.07 770.07 127.56 769.77 124.28 767.84 123.72 764.75 123.47 762.87 124.28"/><polyline class="cls-9" points="764.9 127.79 764.64 129.61 764.25 130.38 764.9 130.96 765.57 130.57 766.45 130.66 766.54 130.26"/><polygon class="cls-9" points="764.6 130.96 766.34 130.96 767.4 131.17 767.83 131.98 768.24 131.87 768.48 131.51 769.22 130.87 769.22 129.42 769.75 127.79 770.02 127.02 770.07 127.54 770.07 127.57 769.51 132.07 768.25 133.66 766.45 135.08 764.61 135.08 764.05 134.49 763.01 131.82 763 131.73 763.41 131.03 764.6 130.96"/><polygon class="cls-5" points="763.2 127.57 764.55 127.57 764.42 127.94 763.44 127.94 763.2 127.57"/><polygon class="cls-5" points="767.89 127.57 766.53 127.57 766.67 127.94 767.64 127.94 767.89 127.57"/><polygon class="cls-11" points="834.22 56.65 802.68 56.65 802.68 54.61 806.14 54.61 818.45 47.9 834.22 56.65"/><polygon class="cls-11" points="851.73 56.65 825.27 56.65 838.5 49.3 851.73 54.3 851.73 56.65"/><rect class="cls-11" x="808.83" y="43.91" width="5.42" height="1.98"/><polygon class="cls-11" points="814.25 45.89 808.83 45.89 810.43 47.24 812.64 47.24 814.25 45.89"/><rect class="cls-11" x="810.5" y="46.94" width="2.08" height="8.78"/><line class="cls-11" x1="811.54" y1="44.9" x2="811.54" y2="37.63"/><rect class="cls-11" x="832.46" y="106.69" width="10.22" height="10.22"/><rect class="cls-11" x="824.04" y="139.86" width="10.22" height="36.29"/><rect class="cls-11" x="814.76" y="114.12" width="10.22" height="38.12"/><rect class="cls-11" x="826.84" y="88.02" width="15.84" height="11.71"/><rect class="cls-11" x="836.67" y="95.92" width="6.01" height="11.71"/><polygon class="cls-11" points="817.29 114.12 811.42 114.12 811.42 88.02 819.87 88.02 817.29 114.12"/><polygon class="cls-11" points="822.86 114.12 824.64 114.12 824.64 88.02 822.07 88.02 822.86 114.12"/><rect class="cls-11" x="815.61" y="75.39" width="22.89" height="12.63"/><polygon class="cls-11" points="838.5 75.39 815.61 75.39 810.45 68.62 843.66 68.62 838.5 75.39"/><rect class="cls-11" x="818.45" y="51.89" width="19.36" height="4.76"/><path class="cls-11" d="M870.7,120.95v12h41.59v-12Zm8.18,9.75h-4v-7.54h4Zm4.43,0h-2.84v-7.54h2.84Zm5.4-3.33h-2.84v-4.21h2.84Zm11.4,3.33h-2.46v-7.54h2.46Zm6.3,0h-4v-5.43h4Z" transform="translate(-63.44 -64.3)"/><polygon class="cls-11" points="828.51 134.56 827.33 134.56 827.33 114.12 829.37 114.12 828.51 134.56"/><rect class="cls-11" x="826.84" y="102.68" width="4.63" height="4.63"/><rect class="cls-11" x="809.51" y="155.69" width="12.68" height="5.71"/><rect class="cls-11" x="809.51" y="165.95" width="12.68" height="5.71"/><path class="cls-7" d="M947.34,137.75c40.3,0,51.69,31.44,51.69,71.52,0,39.67-11.39,70.89-51.69,70.89-40.72,0-52.53-31.23-52.53-70.89C894.81,169.19,906.62,137.75,947.34,137.75Zm0,109.92c13.29,0,17.93-17.3,17.93-38.4,0-21.31-4.64-38.82-17.93-38.82-13.71,0-18.78,17.51-18.78,38.82C928.57,230.37,933.63,247.67,947.34,247.67Z" transform="translate(-63.44 -64.3)"/><path class="cls-7" d="M1115.91,137.75c40.3,0,51.69,31.44,51.69,71.52,0,39.67-11.39,70.89-51.69,70.89-40.72,0-52.54-31.23-52.54-70.89C1063.38,169.19,1075.19,137.75,1115.91,137.75Zm0,109.92c13.29,0,17.93-17.3,17.93-38.4,0-21.31-4.64-38.82-17.93-38.82-13.71,0-18.78,17.51-18.78,38.82C1097.13,230.37,1102.2,247.67,1115.91,247.67Z" transform="translate(-63.44 -64.3)"/><path class="cls-7" d="M1353.89,137.75c40.3,0,51.69,31.44,51.69,71.52,0,39.67-11.39,70.89-51.69,70.89-40.72,0-52.53-31.23-52.53-70.89C1301.36,169.19,1313.17,137.75,1353.89,137.75Zm0,109.92c13.29,0,17.93-17.3,17.93-38.4,0-21.31-4.64-38.82-17.93-38.82-13.71,0-18.78,17.51-18.78,38.82C1335.11,230.37,1340.18,247.67,1353.89,247.67Z" transform="translate(-63.44 -64.3)"/><polygon class="cls-12" points="577.62 104.49 582.04 100.13 583.23 93.41 588.27 90.17 596.31 85.91 605.76 89.27 609.06 82.15 610.1 74.73 612.29 66.95 621.14 66.25 626.01 59.73 632.48 56.22 640.49 55.62 644.86 51.77 639.48 49.44 632.33 52.08 625.18 52.22 618.04 49.99 610.89 51.87 603.75 49.65 596.59 51.14 589.45 49.65 582.3 49.29 575.15 50.66 568 53.1 560.86 49.88 553.71 49.49 546.56 50.08 539.41 50.2 532.26 52.45 525.12 50.02 517.96 51.01 510.81 49.33 504.98 51.7 508.42 56.08 512.97 61.32 518.76 65.07 525.56 67.63 530.03 72.9 535.56 73.37 541.7 74.71 546.51 81.82 548.8 90.93 557.53 88.27 560.1 96.47 560.37 103.25 565.6 105.7 571.91 107.31 577.62 104.49"/><path class="cls-2" d="M873.88,132.91l-17.58,18.31A81.43,81.43,0,0,1,760,165.82l-14.93-7.65" transform="translate(-63.44 -64.3)"/><path class="cls-3" d="M1291.21,100.52l-.55-.1-.53-.07-1.06-.13-1-.09-1-.06c-.68,0-1.34,0-2-.06s-1.32,0-2,0a58.19,58.19,0,0,0-7.52.7,66.44,66.44,0,0,0-13.77,3.73,37.55,37.55,0,0,0-6.18,3.16,59.53,59.53,0,0,0-5.63,4.17c-1.82,1.49-3.63,3-5.49,4.42s-3.78,2.73-5.68,4.07l-5.83,4.13,1.26,4.51q1.06,3.8,2.28,7.59.61,1.89,1.27,3.78c.44,1.26.86,2.52,1.31,3.78.89,2.52,1.81,5,2.78,7.54s2,5,3.08,7.51l2.3-.23c.59-2.66,1.08-5.32,1.54-8s.86-5.29,1.25-7.94c.2-1.32.36-2.64.55-4s.35-2.64.5-4c0-.27.06-.54.09-.82.86-.34,1.72-.68,2.59-1,2.2-.79,4.46-1.48,6.7-2.21a59.54,59.54,0,0,0,6.56-2.46,37.54,37.54,0,0,0,6-3.47,66.44,66.44,0,0,0,10.62-9.52,58.17,58.17,0,0,0,4.67-5.93c.37-.53.72-1.09,1.08-1.64s.7-1.13,1-1.72l.5-.89.49-.92.46-1,.23-.48.22-.51Z" transform="translate(-63.44 -64.3)"/><path class="cls-3" d="M1273.43,130.4a61.71,61.71,0,0,1,3,8.13c.82,2.7,1.53,5.38,2.09,8.06a120.07,120.07,0,0,1,2.3,16,97.1,97.1,0,0,1,.1,15.8,133.72,133.72,0,0,1-2.51,15.59l-.57,2.81-.05.09-1.47,2.38c-.49.8-1,1.59-1.54,2.36a26.13,26.13,0,0,1-1.86,2.25c-.33.37-.69.72-1,1.08s-.73.71-1.1,1.06c-1.49,1.4-3.06,2.78-4.39,4.25a18.24,18.24,0,0,0-3.17,4.69,15.1,15.1,0,0,0-.93,2.58,13,13,0,0,0-.38,2.78,26.77,26.77,0,0,0,.71,6.08c.21,1,.41,2.09.57,3.12a20,20,0,0,1,.24,3,12.37,12.37,0,0,1-1.21,5.39l.45-5.29a29.78,29.78,0,0,1-2.46,15.1c-.2.44-.4.89-.64,1.33s-.46.9-.73,1.35a21.24,21.24,0,0,1-1.87,2.77l-2.27.4a21.25,21.25,0,0,1-2.71-2c-.41-.33-.78-.68-1.15-1s-.72-.69-1.06-1a30,30,0,0,1-3.44-4.28,29.67,29.67,0,0,1-2.43-4.46c-.67-1.51.65-3,.25-4.61l2,.17.9-3.55c.29-1.52-1.16-5.34.08-6.83.61-.75-.51-1.47.26-2.16s1.6-1.37,2.42-2a26.77,26.77,0,0,0,4.41-4.24,13,13,0,0,0,1.48-2.38,15.1,15.1,0,0,0,.93-2.58,18.24,18.24,0,0,0,.54-5.63c-.1-2-.43-4-.69-6.07-.06-.51-.13-1-.17-1.52s-.09-1-.12-1.5a26.12,26.12,0,0,1,0-2.91c0-1,.18-1.88.31-2.8l.39-2.77-.62,2.9a133.73,133.73,0,0,1-.05-15.79,97.1,97.1,0,0,1,2.56-15.59,120.07,120.07,0,0,1,4.75-15.42c1-2.56,2.09-5.1,3.32-7.64a61.71,61.71,0,0,1,4.28-7.56Z" transform="translate(-63.44 -64.3)"/><polygon class="cls-3" points="1304.23 37.95 1302.66 39.48 1302.11 30.17 1308.39 30.9 1304.23 37.95"/><path class="cls-3" d="M1367.37,106.86c-2.46,1-4.85,2-7.21,3.08s-4.71,2.18-7,3.31c-1.17.56-2.31,1.14-3.46,1.71s-2.3,1.15-3.43,1.75l-.45.24c-.3-.21-.61-.42-.91-.64-1.32-1-2.59-2.09-3.88-3.15a29.84,29.84,0,0,0-4-2.89,18.29,18.29,0,0,0-4.47-1.84,32.5,32.5,0,0,0-4.92-.86,35.8,35.8,0,0,0-10.88.57c-.49.09-1,.23-1.48.34s-1,.26-1.52.42l-.77.24-.79.27-.81.32-.4.16-.42.19-1,2.1.13.44.15.41.29.82.31.77.33.74c.22.49.45,1,.68,1.43s.47.91.72,1.34a35.54,35.54,0,0,0,3.17,4.71,35.18,35.18,0,0,0,3.56,3.86,32.48,32.48,0,0,0,3.88,3.14,18.29,18.29,0,0,0,4.33,2.16,29.85,29.85,0,0,0,4.81,1.11c1.65.27,3.31.51,4.92.85s3.18.8,4.76,1.22l6.82,1.8,2.56-3.11q2.42-2.94,4.73-6,1.15-1.54,2.28-3.1c.75-1,1.51-2.08,2.25-3.14,1.49-2.11,3-4.23,4.4-6.39s2.86-4.35,4.21-6.62Z" transform="translate(-63.44 -64.3)"/><path class="cls-13" d="M1282.48,160.28H1260.1V123.9a26.54,26.54,0,0,1,19.56-25.61l14.76-4a20.45,20.45,0,0,1,15.22,1.8h0a26.54,26.54,0,0,1,13.77,23.27h0A40.93,40.93,0,0,1,1282.48,160.28Z" transform="translate(-63.44 -64.3)"/><path class="cls-3" d="M1316.46,100.43l.1-3.65a9.3,9.3,0,0,0-2.62-6.73l-.74-.76a9.3,9.3,0,0,0-10.61-2h0a9.3,9.3,0,0,0-5.24,6.9l-1.31,7.84a7.33,7.33,0,0,1-1.18,2.94h0a7.33,7.33,0,0,0-1.12,5.66l1.33,6.29a5.42,5.42,0,0,0,4.88,4.28l7.08.55a5.42,5.42,0,0,0,5.58-3.72l1.69-5.16A44.11,44.11,0,0,0,1316.46,100.43Z" transform="translate(-63.44 -64.3)"/><path class="cls-5" d="M1309.82,108.31h0a1.66,1.66,0,0,1-1.7-.53l-.91-1.08a1.66,1.66,0,0,0-2.3-.23l-3.86,3.05a1.66,1.66,0,0,0-.63,1.3v1.86a1.66,1.66,0,0,0,2,1.63l.5-.1a1.66,1.66,0,0,1,1.19.22l4.45,2.75a1.66,1.66,0,0,0,2.38-.71l.85-1.81a1.66,1.66,0,0,0,.16-.71v-4A1.66,1.66,0,0,0,1309.82,108.31Z" transform="translate(-63.44 -64.3)"/><g class="cls-14"><polygon class="cls-7" points="1240.59 53.48 1246.39 47.73 1245.21 55.82 1240.59 53.48"/><polygon class="cls-7" points="1235.02 53.68 1239.87 47.1 1239.94 55.27 1235.02 53.68"/><polygon class="cls-7" points="1245.74 41.45 1241.73 45.42 1242.55 39.84 1245.74 41.45"/><polygon class="cls-7" points="1249.75 42.59 1245.74 46.56 1246.56 40.98 1249.75 42.59"/></g><path class="cls-3" d="M1297.37,101.22l-2.93-3.46a18.61,18.61,0,0,1-2.94-4.67l-1.93-4.52,13.17,9.75Z" transform="translate(-63.44 -64.3)"/><path class="cls-3" d="M1315,103.79l3.11-.92a13.31,13.31,0,0,0,3.59-1.64l2.93-2-11.69.68Z" transform="translate(-63.44 -64.3)"/><polygon class="cls-5" points="1243.09 35.34 1237.11 33.8 1239.31 36.92 1243.09 35.34"/><polygon class="cls-5" points="1251.65 37.22 1247.23 36.08 1248.86 38.38 1251.65 37.22"/><polygon class="cls-5" points="1242.43 39.16 1244.29 39.64 1244.64 38.24 1242.43 39.16"/><polygon class="cls-5" points="1244.86 39.94 1246.61 40.38 1245.32 38.56 1244.86 39.94"/><polygon class="cls-5" points="1247.23 27.29 1245.66 27.29 1244.37 20.69 1243.09 14.09 1252.41 15.88 1250.23 20.69 1247.23 27.29"/><polygon class="cls-5" points="1198.6 51.92 1180.22 64.54 1173.79 54.48 1192.17 41.86 1198.6 51.92"/><polygon class="cls-8" points="1190.32 52.49 1180.13 59.48 1176.56 53.91 1186.76 46.91 1190.32 52.49"/><polygon class="cls-5" points="1205.76 143.14 1197.67 173.28 1181.22 163.7 1193.01 140.09 1205.76 143.14"/><polygon class="cls-7" points="1308.13 0 1291.69 21.91 1285.33 27.86 1291.74 30.79 1296.15 26.67 1316.42 15.28 1308.13 0"/><path class="cls-5" d="M1349.8,78.5c1.82,1.31,3.58,2.69,5.34,4.07l2.61,2.09,2.57,2.14c.43.36.87.7,1.32,1l.67.51.59.59,2.34,2.36,2.32,2.38,2.3,2.4c3.05,3.21,6,6.51,8.95,9.84s5.82,6.7,8.66,10.11l.22.26,0,.09c.47,1.25.93,2.52,1.35,3.8.2.65.41,1.28.6,1.94s.37,1.3.53,2l-.41.21c-.46-.51-.9-1-1.32-1.56s-.83-1.06-1.25-1.59c-.82-1.07-1.6-2.16-2.36-3.26l.25.35q-4.82-4.58-9.5-9.29c-3.12-3.14-6.21-6.31-9.21-9.56L1364.15,97l-2.22-2.47-2.2-2.49-.55-.62-.5-.67c-.33-.45-.67-.89-1-1.32l-2.11-2.57-2.06-2.62c-1.36-1.77-2.72-3.53-4-5.36Z" transform="translate(-63.44 -64.3)"/><polygon class="cls-15" points="1312.55 44.75 1302.46 34.49 1301.53 39.32 1295.47 46.16 1301.43 54.01 1309.05 47.48 1312.55 44.75"/><polygon class="cls-5" points="1306.38 51.64 1295.62 61.12 1285.65 50.23 1298.65 41.81 1306.38 51.64"/><line class="cls-16" x1="1289.04" y1="49.27" x2="1296.81" y2="57.33"/><line class="cls-16" x1="1296.66" y1="44.82" x2="1302.85" y2="51.47"/><line class="cls-17" x1="1195.17" y1="148.57" x2="1205.63" y2="150.47"/><line class="cls-17" x1="1193.74" y1="153.52" x2="1204.2" y2="155.42"/><line class="cls-17" x1="1193.74" y1="158.47" x2="1204.2" y2="160.36"/><line class="cls-17" x1="1189.93" y1="162.4" x2="1200.4" y2="164.29"/><path class="cls-5" d="M1277.72,96.12l6.68,14.65,3.35,7.34c.59,1.17,1.29,2.64,1.85,4s1.09,2.82,1.54,4.26a54,54,0,0,1,1.94,8.67,80.75,80.75,0,0,1,.69,8.43l.78,16.19-5.21.69-3.48-15.83c-.59-2.71-1.1-5.14-1.85-7.51a44,44,0,0,0-2.69-6.79c-.54-1.07-1.1-2.12-1.73-3.12s-1.25-1.92-2.05-3l-4.48-6.78L1263,102Z" transform="translate(-63.44 -64.3)"/><polygon class="cls-5" points="1216.22 71.13 1210.24 69.59 1212.44 72.71 1216.22 71.13"/><polygon class="cls-5" points="1249.6 71.13 1243.62 69.59 1245.82 72.71 1249.6 71.13"/><g class="cls-18"><line class="cls-19" x1="1205.4" y1="44.61" x2="1216.27" y2="39.96"/><line class="cls-19" x1="1208.25" y1="49.38" x2="1219.12" y2="44.73"/><line class="cls-19" x1="1203.86" y1="40.25" x2="1214.73" y2="35.6"/><line class="cls-19" x1="1212.76" y1="55.26" x2="1221.88" y2="51.36"/><line class="cls-19" x1="1218.64" y1="66.17" x2="1226.76" y2="62.7"/><line class="cls-19" x1="1216.31" y1="60.65" x2="1224.43" y2="57.18"/><line class="cls-19" x1="1222.85" y1="76.08" x2="1229.1" y2="75.26"/><line class="cls-19" x1="1220.94" y1="70.09" x2="1227.93" y2="68.83"/><line class="cls-19" x1="1223.89" y1="81.42" x2="1228.88" y2="81.16"/><line class="cls-19" x1="1224.96" y1="87.62" x2="1230.22" y2="86.93"/></g><polygon class="cls-3" points="1306.38 30.6 1311.75 29.25 1315.34 29.25 1321.23 38.24 1314.92 44.38 1305.25 33.8 1306.38 30.6"/><polyline class="cls-7" points="1256.77 36.75 1257.46 38.6 1259.73 38.94 1259.06 36.46"/><path class="cls-2" d="M880,143.27,825.6,175.91a69,69,0,0,1-67.45.16h0" transform="translate(-63.44 -64.3)"/><path class="cls-7" d="M1016.54,380.65" transform="translate(-63.44 -64.3)"/><path class="cls-20" d="M1028.81,96.67h1.32a4.58,4.58,0,0,1,4.58,4.58v1.32a0,0,0,0,1,0,0h-1.32a4.58,4.58,0,0,1-4.58-4.58V96.67A0,0,0,0,1,1028.81,96.67Z"/><path class="cls-21" d="M937.23,199.76h1.32a4.58,4.58,0,0,1,4.58,4.58v1.32a0,0,0,0,1,0,0h-1.32a4.58,4.58,0,0,1-4.58-4.58v-1.32A0,0,0,0,1,937.23,199.76Z" transform="translate(1079.45 -801.77) rotate(90)"/><path class="cls-21" d="M873.91,260.59h1.32a4.58,4.58,0,0,1,4.58,4.58v1.32a0,0,0,0,1,0,0h-1.32a4.58,4.58,0,0,1-4.58-4.58v-1.32A0,0,0,0,1,873.91,260.59Z" transform="translate(1076.96 -677.62) rotate(90)"/><path class="cls-22" d="M940.19,224.74l.17-6.43.08-3.2a3.33,3.33,0,0,0-1-2.39,3.52,3.52,0,0,0-2.49-1,4.57,4.57,0,0,1-4.3-4.84l.08-3.21h.67l.08,3.21a3.65,3.65,0,0,0,1,2.61,3.5,3.5,0,0,0,2.49,1.07,4.8,4.8,0,0,1,3.36,1.21,4.75,4.75,0,0,1,1.57,3.32l.09,3.23.17,6.43Z" transform="translate(-63.44 -64.3)"/><path class="cls-22" d="M1085.57,178.89c0-.32,0-.65,0-1a6.83,6.83,0,0,1,.13-1.08,9.44,9.44,0,0,1,3.15-5.52,9.28,9.28,0,0,1,3.74-2,9.1,9.1,0,0,1,2.1-.31c.73,0,1.33,0,2,0l2,0,.92,0c.3,0,.6-.07.9-.13a8.26,8.26,0,0,0,3.32-1.49,8.08,8.08,0,0,0,2.36-2.82,7.84,7.84,0,0,0,.66-1.74c.09-.3.12-.61.18-.92,0-.15,0-.31,0-.47l0-.23V161h0c.15,0-.34,0,.34,0s.19,0,.34,0h0v.49c0,.17,0,.34,0,.51-.05.34-.07.68-.15,1a8.64,8.64,0,0,1-.64,1.94,9,9,0,0,1-2.5,3.24,9.35,9.35,0,0,1-3.69,1.84c-.34.08-.69.13-1,.19l-1,.07-2,0a12.24,12.24,0,0,0-3.68.4,7.75,7.75,0,0,0-5.41,6.37,5.09,5.09,0,0,0-.07.87c0,.28,0,.6,0,.93Z" transform="translate(-63.44 -64.3)"/><path class="cls-3" d="M1294.55,245.36l9-14.36c.24-2.05-3.79-12.16-2.9-13.86a20.41,20.41,0,0,1,3.38-4.69,34.64,34.64,0,0,1,4.72-4c1.71-1.24,3.44-2.48,5-3.8l.66-.56,0-6.61c0-1.22-.06-2.42-.18-3.6s-.31-2.33-.49-3.49c-.38-2.31-.73-4.63-1.13-6.94a56.17,56.17,0,0,0-1.58-6.78,43.35,43.35,0,0,0-2.6-6.44,68.42,68.42,0,0,0-7.71-12l-16.17,5.45a68.43,68.43,0,0,0,1.15,14.24,43.36,43.36,0,0,0,1.83,6.7,56.19,56.19,0,0,0,2.85,6.36c1.07,2.08,2.2,4.13,3.3,6.2.55,1,1.09,2.07,1.72,3.08s1.3,2,2,3l.2-2.32-.08,1.41a34.65,34.65,0,0,1-.8,6.11,20.41,20.41,0,0,1-2.14,5.38,16.24,16.24,0,0,1-3.85,4.44l-.55,1.75a63.75,63.75,0,0,1-3.84,5.3c-1.33,1.76-7,17.06-7.56,18.91Z" transform="translate(-63.44 -64.3)"/><polygon class="cls-5" points="1236.97 91.85 1252.41 117.64 1242.72 111.08 1230.49 118.02 1223.02 147.25 1214.48 146.23 1213.23 119.55 1205.7 116.22 1202.26 107.39 1193.93 94.69 1236.97 91.85"/><polygon class="cls-5" points="1252.51 140.59 1235.28 177.92 1216.17 173.34 1232.16 140.3 1252.51 140.59"/><polygon class="cls-8" points="1243.44 151.46 1230.81 176.2 1222.84 173.08 1234.34 151.19 1243.44 151.46"/><polygon class="cls-11" points="1252.04 236.96 1243.05 212.05 1238.13 193.51 1216.92 183.48 1205.34 203.95 1189.23 212.49 1178.07 238.89 1252.04 242.88 1252.04 236.96"/><polygon class="cls-22" points="236.32 231.94 243.49 215.69 293.7 211.43 304.81 212.39 311.93 230.58 355.9 235.5 356.52 240.69 333.99 241.03 322.13 257.53 278.88 258.52 267.46 241.16 242.63 243.09 236.31 255.56 236.32 231.94"/><polygon class="cls-23" points="358.96 243.31 362.92 250.54 363.09 259.8 356.74 262.91 313.82 263.72 305.87 260.88 285.23 261.27 276.57 264.42 236.61 265.18 232.48 261.2 232.36 254.77 245.06 241.59 292.65 240.69 337.55 239.84 358.96 243.31"/><circle class="cls-22" cx="408.09" cy="324.44" r="14.62" transform="translate(-69.5 -56.52) rotate(-1.08)"/><circle class="cls-3" cx="408.09" cy="324.44" r="9.25" transform="translate(-69.5 -56.52) rotate(-1.08)"/><circle class="cls-22" cx="320.77" cy="326.09" r="14.62" transform="translate(-69.55 -58.17) rotate(-1.08)"/><circle class="cls-3" cx="320.77" cy="326.09" r="9.25" transform="translate(-69.55 -58.17) rotate(-1.08)"/><path class="cls-3" d="M294.26,315.77l5.59-.11,5.9-11,26.08-.49,11.8,17.17,40.14-.76,12.07-17.62,26.47.19-.1-5.31-43-4.55-2.68-4.48-9.56-16-25.71.49L299.8,274l-5.42,26.57v.74l3.7-.07.16,8.69-3.7.07.07,3.7ZM337.48,280l.26,13.69-32.19.61,4.18-13.77Zm13.86,18.52.07,3.5-7.58.14-.07-3.5Zm22.13-4.09-28.12.53-.29-15.11,20.16-.38Z" transform="translate(-63.44 -64.3)"/><polygon class="cls-22" points="320.34 256.25 280.19 257.01 268.39 239.84 242.31 240.33 236.41 251.36 228.64 251.51 228.68 253.55 227.2 253.57 227.31 259.31 240.81 259.05 241.6 251.64 246.26 243.59 266.24 243.21 276.92 259.85 323.72 258.97 335.07 242.84 354.5 242.47 359 245.72 364 245.62 358.88 239.24 358.87 238.82 332.4 238.63 320.34 256.25"/><polygon class="cls-22" points="228.37 237.08 228.12 224.1 222.94 224.2 218.87 224.28 219.43 253.72 221.93 253.67 227.2 253.57 228.68 253.55 228.37 237.08"/><path class="cls-22" d="M431.75,313l-8,.15.13,7,3.7-.07,4.25-.08a3.52,3.52,0,0,0-.13-7Z" transform="translate(-63.44 -64.3)"/><rect class="cls-22" x="343.79" y="298.57" width="7.59" height="3.5" transform="translate(-69.05 -57.67) rotate(-1.08)"/><rect class="cls-22" x="294.48" y="301.29" width="3.7" height="8.7" transform="translate(-69.16 -58.64) rotate(-1.08)"/><polygon class="cls-24" points="365.3 232.01 436.41 212.56 437.39 264.37 365.47 240.99 365.3 232.01"/><polyline class="cls-22" points="662.34 43.34 695.86 58.37 697.33 51.2 663.41 40.4 663.41 40.4"/><polygon class="cls-22" points="665.3 35.22 662.34 43.34 668.29 45.51 669.3 42.75 666.27 32.54 665.3 35.22"/><circle class="cls-21" cx="729.47" cy="106.31" r="0.97" transform="translate(316.64 691.13) rotate(-70)"/><circle class="cls-25" cx="729.47" cy="106.31" r="5.89" transform="translate(316.64 691.13) rotate(-70)"/><path class="cls-22" d="M758.45,117.75h16.94A13.61,13.61,0,0,1,789,131.36v0a0,0,0,0,1,0,0H763.54a5.1,5.1,0,0,1-5.1-5.1v-8.52A0,0,0,0,1,758.45,117.75Z" transform="translate(25.82 -321.41) rotate(20)"/><line class="cls-25" x1="714.12" y1="68.64" x2="711.91" y2="74.73"/><line class="cls-25" x1="701.06" y1="63.88" x2="698.84" y2="69.98"/><polygon class="cls-22" points="705.91 46.14 709.73 47.53 708.03 52.2 703.37 50.5 705.91 46.14"/><line class="cls-25" x1="738.12" y1="55.64" x2="678.33" y2="33.88"/><path class="cls-25" d="M755.41,131.77l26.6,9.68a1.65,1.65,0,0,0,2.12-1h0" transform="translate(-63.44 -64.3)"/><path class="cls-3" d="M784.41,129.38a11.66,11.66,0,0,0-7.46-8.82l-3.13-1.14-2,5.39Z" transform="translate(-63.44 -64.3)"/><rect class="cls-3" x="764.56" y="117.27" width="5.74" height="5.74" transform="translate(23.93 -319.53) rotate(20)"/><rect class="cls-3" x="747.21" y="115.55" width="10.17" height="1.41" transform="translate(1356.01 418.51) rotate(-160)"/><rect class="cls-11" x="1378.72" y="290.06" width="1.92" height="23.58" transform="translate(2695.91 539.4) rotate(-180)"/><rect class="cls-11" x="1364.72" y="290.06" width="1.92" height="23.58" transform="translate(2667.91 539.4) rotate(-180)"/><rect class="cls-11" x="1338.63" y="286.52" width="1.92" height="23.58" transform="translate(2615.73 532.33) rotate(-180)"/><rect class="cls-11" x="1323.52" y="289.18" width="1.92" height="20.93" transform="translate(2585.52 534.98) rotate(-180)"/><rect class="cls-11" x="1401.41" y="295.37" width="1.92" height="20.93" transform="translate(2741.31 547.36) rotate(-180)"/><rect class="cls-11" x="1414.83" y="293.6" width="1.92" height="20.93" transform="translate(2768.13 543.83) rotate(-180)"/><path class="cls-2" d="M1324.48,290.65l2.17,1.92a29.72,29.72,0,0,0,37.93,1.29l1.1-.85" transform="translate(-63.44 -64.3)"/><path class="cls-2" d="M1339.59,289.31l-1.53.78a38.85,38.85,0,0,1-41.67-4l-.36-.28" transform="translate(-63.44 -64.3)"/><path class="cls-2" d="M1339.59,289.18l3.14,2.68a29.51,29.51,0,0,0,36.76,1.29l.19-.14" transform="translate(-63.44 -64.3)"/><path class="cls-2" d="M1365.67,292l6,4.93a23.5,23.5,0,0,0,26.65,2.27l4.09-2.34" transform="translate(-63.44 -64.3)"/><path class="cls-2" d="M1379.67,292.77l3.49,2.51a30.29,30.29,0,0,0,32.62,1.77h0" transform="translate(-63.44 -64.3)"/><path class="cls-2" d="M1402.37,296.87l4.54,3.15a25,25,0,0,0,25.45,1.82h0" transform="translate(-63.44 -64.3)"/><polygon class="cls-11" points="1380.52 105.63 1344.22 105.63 1338.78 100.19 1387.32 100.19 1380.52 105.63"/><rect class="cls-11" x="1335.38" y="98.6" width="54.44" height="1.59"/><polygon class="cls-11" points="1387.09 167.17 1326.53 167.17 1322.45 159.69 1393.9 159.69 1387.09 167.17"/><polygon class="cls-11" points="1392.54 202.54 1322.45 202.54 1323.55 198.8 1326.53 198.8 1327.89 195.07 1399.34 195.07 1392.54 202.54"/><polygon class="cls-11" points="1387.09 130.51 1344.22 130.51 1344.22 122.82 1380.29 122.82 1387.09 130.51"/><polygon class="cls-11" points="1397.28 114.45 1379.38 114.45 1379.38 108.56 1397.75 108.56 1397.28 114.45"/><rect class="cls-11" x="1394.11" y="169.92" width="13.55" height="5.88" transform="translate(2738.34 281.43) rotate(180)"/><polygon class="cls-11" points="1386.41 153.04 1338.55 153.04 1316.78 157.69 1316.78 159.69 1405.47 159.69 1405.47 158.03 1386.41 153.04"/><path class="cls-11" d="M1400.89,194.81V218.7l49-1.36V194.81Zm8.43,18H1406V201.54h3.31Zm8.17,0h-3.31V201.54h3.31Zm5.44-5.44h-3.31v-5.84h3.31Zm13.61,5.44h-3.31V201.54h3.31Zm8.85,0h-3.31v-7.2h3.31Z" transform="translate(-63.44 -64.3)"/><rect class="cls-11" x="1381.95" y="167.17" width="4.47" height="27.9"/><rect class="cls-11" x="1330.67" y="167.17" width="4.47" height="27.9"/><rect class="cls-11" x="1372.71" y="167.17" width="3.28" height="27.9"/><rect class="cls-11" x="1354.54" y="167.17" width="3.28" height="27.9"/><rect class="cls-11" x="1423.53" y="228.75" width="4.19" height="31.62" transform="translate(-79.55 296.92) rotate(-14.36)"/><rect class="cls-11" x="1409.87" y="228.72" width="4.43" height="31.62" transform="matrix(0.98, 0.18, -0.18, 0.98, 5.94, -320.68)"/><rect class="cls-11" x="1430.21" y="228.35" width="4.31" height="31.62" transform="translate(6.22 -324.43) rotate(10.63)"/><polygon class="cls-11" points="1378.53 195.8 1374.85 195.36 1380.68 164.28 1384.37 164.72 1378.53 195.8"/><polygon class="cls-11" points="1342.34 195.74 1338.02 195.9 1336.31 164.32 1340.63 164.16 1342.34 195.74"/><rect class="cls-11" x="1342.29" y="167.17" width="3.28" height="27.9"/><rect class="cls-11" x="1326.76" y="202.54" width="65.78" height="4.03"/><rect class="cls-11" x="1326.76" y="222.06" width="65.78" height="4.03"/><rect class="cls-11" x="1368.92" y="206.57" width="20.89" height="30.92"/><rect class="cls-11" x="1352.6" y="232.43" width="20.89" height="5.06"/><polygon class="cls-11" points="1330.67 206.57 1345.57 206.57 1342.84 237.49 1330.67 237.49 1330.67 206.57"/><rect class="cls-11" x="1341.55" y="80.23" width="8.66" height="14.06" rx="3.69" ry="3.69"/><rect class="cls-11" x="1358.72" y="80.23" width="8.66" height="14.06" rx="3.69" ry="3.69"/><rect class="cls-11" x="1375.96" y="80.23" width="8.66" height="14.06" rx="3.69" ry="3.69"/><path class="cls-11" d="M1407.66,169.93v17.63h36.07V169.93Zm7.54,14.69h-3.1v-7.45h3.1Zm14.39,0h-3.1V175.8h3.1Zm6.84-4.08h-3.1V175.8h3.1Z" transform="translate(-63.44 -64.3)"/><rect class="cls-11" x="1347.87" y="204.02" width="17.79" height="37.79"/><rect class="cls-11" x="67.09" y="136.25" width="50.74" height="2.97"/><rect class="cls-11" x="67.09" y="136.25" width="50.74" height="2.97"/><rect class="cls-11" x="59.84" y="154.58" width="64.12" height="2.97"/><rect class="cls-11" x="110.37" y="182.48" width="22.84" height="3.51"/><polygon class="cls-11" points="112.46 185.99 112.46 201.16 115.08 201.16 115.08 191.53 119.58 191.53 119.58 201.16 131.61 201.16 131.61 185.99 112.46 185.99"/><rect class="cls-11" x="52.93" y="157.55" width="74" height="2.97"/><rect class="cls-11" x="97.16" y="174.43" width="13.21" height="2.97"/><rect class="cls-11" x="76.98" y="132.41" width="30.97" height="3.85"/><polygon class="cls-11" points="126.11 175.79 118.86 175.79 111.94 182.48 135.99 182.48 126.11 175.79"/><polygon class="cls-11" points="110.4 146.9 75 146.9 55.23 154.58 128.19 154.58 110.4 146.9"/><rect class="cls-11" x="78.46" y="139.22" width="4.2" height="7.68"/><rect class="cls-11" x="85.21" y="139.22" width="5.97" height="7.68"/><rect class="cls-11" x="105.23" y="139.22" width="1.24" height="7.68"/><rect class="cls-11" x="93.74" y="139.22" width="8.94" height="7.68"/><polygon class="cls-11" points="57.99 196.34 56.63 196.34 56.63 168.06 58.98 168.06 57.99 196.34"/><polygon class="cls-11" points="10.32 212.05 8.96 212.05 8.96 190.26 11.31 190.26 10.32 212.05"/><rect class="cls-11" x="70.1" y="159.03" width="9.14" height="39.37"/><rect class="cls-11" x="94.81" y="159.03" width="9.14" height="39.37"/><rect class="cls-11" x="94.81" y="188.14" width="14.93" height="10.25"/><rect class="cls-11" x="94.81" y="160.51" width="30.67" height="10.25"/><polygon class="cls-11" points="117.33 174.75 110.14 181.13 110.14 160.51 117.33 160.51 117.33 174.75"/><rect class="cls-11" x="64.79" y="159.03" width="2.31" height="39.37"/><rect class="cls-11" x="83.94" y="170.6" width="5.32" height="5.32"/><rect class="cls-11" x="83.19" y="162.9" width="3.4" height="3.4"/><rect class="cls-11" x="146.63" y="257.45" width="2.67" height="5.24" transform="translate(-76.58 -56.37) rotate(-2.94)"/><rect class="cls-11" x="89.84" y="120.87" width="7.8" height="7.8"/><rect class="cls-11" x="91.8" y="124.77" width="3.87" height="7.8"/><path class="cls-2" d="M121.24,235.92l-23,19.61a21.2,21.2,0,0,1-24.7,2h0" transform="translate(-63.44 -64.3)"/><polygon class="cls-3" points="1237.95 195.55 1234.42 195.06 1232.5 190.11 1236.83 191.11 1237.95 195.55"/><polygon class="cls-3" points="1232.39 194.15 1228.23 193.28 1227.2 187.83 1231.36 188.7 1232.39 194.15"/><polygon class="cls-3" points="1226.63 193.98 1222.58 193.13 1221.64 185.64 1225.7 186.49 1226.63 193.98"/><polygon class="cls-3" points="1220.78 193.18 1215.26 191.9 1215.49 184.24 1219.9 185.69 1220.78 193.18"/><polygon class="cls-26" points="1242.43 105.41 1236.16 94.75 1198.6 96.04 1193.49 105.88 1212.28 113.8 1215.31 102.09 1242.43 105.41"/><polygon class="cls-11" points="525.25 186.17 534.36 178.45 534.36 167.93 543.74 158.55 546.32 135.4 552.59 124.72 559 102.84 579.7 102.84 586.96 112.53 613.62 127.25 613.62 134.27 623.05 138.48 623.05 152.5 635.36 147.59 649.38 153.2 662.71 156.71 690.76 158.11 713.53 186.9 690.36 187.04 645.88 198.09 617.82 209.32 582.57 212.56 585.5 198.09 554.9 198.09 551.65 211.16 522.82 212.56 528.75 200.02 525.25 186.17"/><polygon class="cls-3" points="579.29 102.84 576.85 104.45 573.36 104.89 569.85 104.92 566.37 104.35 562.86 104.4 559.6 102.84 562.88 101.39 566.36 101.28 569.85 101.59 573.36 100.78 576.83 101.39 579.29 102.84"/><path class="cls-3" d="M631.6,168.8l.86,3.77a.17.17,0,0,1,0,.07l-.93,3.8v-.07l.29,3.79v0l.7,3.89a.31.31,0,0,1-.09.28h0L630,186.62l0,0-1.9,2.5,0-.08-1.31,2.85,0-.18-.05,3.48v0h0l-.27,2.61c-.11.87-.13,1.74-.17,2.61s-.1,1.74-.07,2.62l0,2.63a.55.55,0,0,1,0,.1v0l-.63,3.49v-.11q-.05,3.52,0,7v.09l-.4,3.51v-.15l.29,3.69a.79.79,0,0,1-.25.64l0,0-2.92,2.68,0,0,0,0-3,2.38.07-.06-2.75,2.65.3-.6-.33,3.55a.9.9,0,0,1,0,.16v0l-1,3.46,0-.16c-.14,1.18-.31,2.37-.47,3.55h0a1,1,0,0,1,0,.14l-1,3.45,0-.13q-.26,1.74-.56,3.46l-.69,3.44v0a.83.83,0,0,1-.15.34l-2.27,3,0,0a.73.73,0,0,1-.17.16c-1.06.71-2.11,1.45-3.18,2.15l0,0-3,2.36.05,0-2.73,2.71,0,0h0c-2,1.56-4,3.12-6.11,4.64a.1.1,0,0,1-.13-.15q1.39-1.32,2.8-2.61l2.82-2.6,0,0,2.54-2.89,0,0,0,0,2.84-2.56h0l0,0c1-.78,2.06-1.52,3.08-2.29l-.19.19,2.16-3.08-.16.37.55-3.44q.22-1.73.47-3.45a1,1,0,0,1,0-.12h0l1-3.46,0,.15c.15-1.18.29-2.37.46-3.55v0a1,1,0,0,1,0-.14l1.07-3.44,0,.19.41-3.54v0a.93.93,0,0,1,.3-.58l2.82-2.57,0,0,.05,0,3.08-2.3,0,0,3-2.6-.27.66-.2-3.7v0a.73.73,0,0,1,0-.13l.47-3.5v.09q0-3.53.16-7v0a.62.62,0,0,1,0-.09l.7-3.48v.11l0-2.65c0-.88.08-1.77.13-2.66s.1-1.77.23-2.65l.33-2.63v0l.15-3.48h0a.43.43,0,0,1,0-.17l1.39-2.81h0l0-.07,2-2.44h0l0,0,2.45-2.24-.1.29-.59-3.91h0v0l-.18-3.79h0a.19.19,0,0,1,0-.06l1-3.77v.07l-.75-3.79a.1.1,0,0,1,.2,0Z" transform="translate(-63.44 -64.3)"/><path class="cls-3" d="M652.66,201.95l-2.87,2.19L647,206.48l0,0-2.4,2.76,0,0,0,0-2.8,2.09.23-.46.12,3.16V214l.44,3.28v.05l.2,3.31a.57.57,0,0,1,0,.09v0l-.35,3.07a.82.82,0,0,1-.42.63l-.05,0-3.13,1.74-.07,0h0c-1.15.44-2.3.91-3.46,1.32l.68-.93q-.09,1.8-.25,3.6v-.08c0,1.23,0,2.46,0,3.69s0,2.46,0,3.7v.09a.19.19,0,0,1,0,.05c-.38,1.21-.77,2.41-1.2,3.61a.1.1,0,0,1-.2,0c.09-1.27.23-2.53.38-3.79v.14c-.2-1.23-.37-2.45-.53-3.68s-.23-2.47-.32-3.7h0v-.08q0-1.8.09-3.6a1,1,0,0,1,.66-.92h0c1.15-.44,2.33-.82,3.5-1.23l-.11,0,3.24-1.53-.47.65.52-3v.14l0-3.31v.05l-.28-3.3v-.06l0-3.16v0a.53.53,0,0,1,.23-.43l2.91-1.93-.07.06,2.57-2.6,0,0,0,0,2.9-2.17,3-2a.1.1,0,0,1,.12.16Z" transform="translate(-63.44 -64.3)"/><path class="cls-3" d="M679.17,233.42l3.4-.39,3.37-.58h0l3.44.08h-.06l3.36-.78,3.4-.58h0l3.41-.17,3.39-.4h.1l3.48.44h-.1l3.24-.27a.5.5,0,0,1,.45.21h0l2.14,2.95v0h0l2,3.23,0-.06,2.49,3-.46-.23q3.65.11,7.3.27h.07l3.57.51h-.15l3.61-.2h.08c1.5.1,3,.1,4.51.26s3,.32,4.47.34,3,.17,4.48.31,3,.11,4.46.19h-.09c2.41-.14,4.82-.31,7.23-.41h0a1,1,0,0,1,.26,0l3.56.8-.17,0c1.19.07,2.38.12,3.57.21h0a.92.92,0,0,1,.5.19l2.79,2.19,0,0,.12.11,2.27,2.75-.05-.06,2.48,2.52c.87.8,1.71,1.62,2.56,2.43l-.06,0,2.84,2.18,0,0,0,0,2.44,2.59,0,0v0l2.11,2.92-.09-.07q1.57,1,3.11,1.94a.1.1,0,0,1-.1.18q-1.66-.79-3.3-1.61l-.07-.05,0,0-2.37-2.72,0,0-2.61-2.42.07.06-3-2,0,0,0,0c-.91-.77-1.83-1.53-2.72-2.31l-2.6-2.45,0,0,0,0-2.37-2.67.14.14L762.43,244l.54.2c-1.19,0-2.38-.1-3.57-.15l-.15,0h0l-3.56-.76.27,0c-2.41.14-4.82.22-7.22.33h-.09c-1.5-.1-3-.11-4.51-.3s-3-.36-4.48-.42-3-.26-4.48-.46-3-.24-4.46-.36h.08l-3.61.13H727l-3.56-.58h.07q-3.64-.24-7.28-.41h0a.62.62,0,0,1-.45-.23l-2.43-3.07h0l0-.05-1.95-3.27,0,0-2.07-3,.45.22-3.25.19h-.1l-3.47-.53h.1l-3.42.31-3.44.08h0l-3.4.49-3.37.68h-.06l-3.44-.18h0l-3.4.49-3.42.3a.1.1,0,0,1,0-.2Z" transform="translate(-63.44 -64.3)"/><rect class="cls-11" x="508.44" y="216.07" width="14.46" height="10.37"/><rect class="cls-11" x="435.48" y="230.83" width="14.46" height="10.37"/><rect class="cls-11" x="612.15" y="223.38" width="14.46" height="10.37"/><rect class="cls-11" x="413.36" y="230.63" width="9.97" height="7.15"/><rect class="cls-11" x="488.9" y="221.4" width="14.46" height="10.37"/><rect class="cls-11" x="615.72" y="211.16" width="7.33" height="6.47"/><rect class="cls-11" x="533.98" y="222.93" width="9.29" height="4.28"/><rect class="cls-11" x="584.4" y="215.67" width="9.29" height="4.28"/><rect class="cls-11" x="498.72" y="236.32" width="9.29" height="4.28"/><rect class="cls-11" x="445.3" y="220.74" width="9.29" height="4.28"/><rect class="cls-11" x="513.39" y="228.57" width="7.36" height="6.93"/><rect class="cls-11" x="597.89" y="216.49" width="7.36" height="6.93"/><rect class="cls-11" x="525.08" y="227.48" width="4.94" height="4.65"/><rect class="cls-11" x="437.39" y="218.42" width="4.94" height="4.65"/><rect class="cls-11" x="593.4" y="226.08" width="13.48" height="6.93"/><rect class="cls-11" x="462.5" y="228.66" width="13.48" height="6.93"/><rect class="cls-11" x="630.46" y="232.04" width="13.48" height="6.93"/><rect class="cls-11" x="647.9" y="227.27" width="13.48" height="6.93"/><rect class="cls-11" x="527.55" y="215.3" width="12.85" height="5.02"/><rect class="cls-11" x="578.52" y="222.88" width="11.75" height="3.7"/><rect class="cls-11" x="467.2" y="221.53" width="11.75" height="3.7"/><rect class="cls-11" x="632.2" y="219.4" width="11.75" height="3.7"/><rect class="cls-11" x="480.45" y="235.58" width="11.75" height="3.7"/><rect class="cls-11" x="395.47" y="226.18" width="11.75" height="3.7"/><rect class="cls-11" x="419.45" y="221.76" width="11.75" height="3.7"/><path class="cls-3" d="M640.07,168.7l.16,3.81.09,3.82v0h0l-.44,3.83v0l.29,3.79-.08-.18,1.81,2c.59.67,1.25,1.28,1.88,1.91s1.29,1.24,1.88,1.91l1.81,2,0,0,2.6,2.47,0,0,2.86,2.25a.51.51,0,0,1,.19.36h0l.29,3.46.15,3.47v0h0l-.13,3.45v0h0l-.38,3.45v-.16l.44,3.45a.61.61,0,0,1,0,.09v0l-.1,3.38-.23-.56,3.07,2.79,2.91,3-.07-.07,3.3,2.6a.85.85,0,0,1,.32.69v0l-.14,3.66v-.18l.58,3.6a.85.85,0,0,1,0,.17v0l-.17,3.58,0,3.58v.09c-.09,1.21-.18,2.41-.29,3.62l-.09-.52,1.55,3.38h0l0,.06,1.28,3.46v0l0,.1.81,3.62,0-.11,1.24,3.48v0a.75.75,0,0,1,0,.14l.52,3.7L668,261c.69,1.72,1.35,3.46,2,5.19.32.87.62,1.74,1,2.59l1,2.56v0a.35.35,0,0,1,0,.11l.19,3.8,0-.07q.58,1.76,1.13,3.53a.1.1,0,0,1-.19.07q-.75-1.69-1.47-3.4v-.07l-.52-3.77,0,.14-1.22-2.5c-.42-.83-.77-1.69-1.15-2.53-.73-1.71-1.53-3.37-2.27-5.07a.72.72,0,0,1,0-.16v0l-.65-3.68,0,.17-1.37-3.43,0-.07v0l-.94-3.58,0,.12-1.33-3.44,0,.07-1.58-3.36a1,1,0,0,1-.09-.5v0c.09-1.21.2-2.41.31-3.62v-3.55l.25-3.63v.2l-.49-3.61v0a.85.85,0,0,1,0-.16l.24-3.65.32.72L658,223.64h0l-.06-.06-2.82-3-3-2.82h0a.72.72,0,0,1-.22-.55l.16-3.38v.11l-.37-3.45h0a.64.64,0,0,1,0-.14l.45-3.44v0l.2-3.44v0l-.08-3.45-.22-3.44.2.37-2.81-2.31h0l0,0-2.53-2.54h0l-1.75-2c-.57-.69-1.21-1.31-1.82-2s-1.26-1.27-1.83-2l-1.77-2h0a.29.29,0,0,1-.07-.18l-.19-3.8h0v0l.54-3.81v-3.79l-.06-3.81a.1.1,0,0,1,.2,0Z" transform="translate(-63.44 -64.3)"/><rect class="cls-11" x="46.67" y="201.49" width="14.46" height="10.37"/><rect class="cls-11" x="116.53" y="213.99" width="14.46" height="10.37"/><rect class="cls-11" x="65.6" y="212.89" width="14.46" height="10.37"/><rect class="cls-11" x="40.54" y="214.84" width="7.33" height="6.47"/><rect class="cls-11" x="34.47" y="206.65" width="9.29" height="4.28"/><rect class="cls-11" x="89.54" y="206.27" width="9.29" height="4.28"/><rect class="cls-11" x="40.91" y="225.89" width="9.29" height="4.28"/><rect class="cls-11" x="18.53" y="219.17" width="7.36" height="6.93"/><rect class="cls-11" x="103.03" y="207.09" width="7.36" height="6.93"/><rect class="cls-11" x="30.23" y="218.08" width="4.94" height="4.65"/><rect class="cls-11" x="98.55" y="216.68" width="13.48" height="6.93"/><rect class="cls-11" x="15.47" y="207.46" width="13.48" height="6.93"/><rect class="cls-11" x="32.38" y="236.19" width="13.48" height="6.93"/><rect class="cls-11" x="145.3" y="212.03" width="13.48" height="6.93"/><rect class="cls-11" x="67.8" y="203.76" width="12.85" height="5.02"/><rect class="cls-11" x="50.65" y="217.32" width="11.75" height="3.7"/><rect class="cls-11" y="215.81" width="11.75" height="3.7"/><rect class="cls-11" x="125.89" y="207.46" width="11.75" height="3.7"/><rect class="cls-11" x="65.51" y="228.03" width="11.75" height="3.7"/><rect class="cls-11" x="277.48" y="328.54" width="5.54" height="4.85" transform="translate(333.55 684.34) rotate(-155.36)"/><rect class="cls-11" x="393.57" y="340.57" width="5.54" height="4.85" transform="translate(550.14 755.71) rotate(-155.36)"/><rect class="cls-11" x="287.93" y="332.21" width="4.82" height="4.22" transform="translate(621.65 470.63) rotate(157.91)"/><rect class="cls-11" x="284.34" y="340.13" width="3.19" height="2.79" transform="translate(429.2 671.78) rotate(-167.71)"/><rect class="cls-11" x="275.6" y="343.61" width="3.19" height="2.79" transform="translate(411.19 676.79) rotate(-167.71)"/><rect class="cls-11" x="372.24" y="334.43" width="3.19" height="2.79" transform="translate(-191.67 293.01) rotate(-44.38)"/><rect class="cls-11" x="385.44" y="346.45" width="3.19" height="2.79" transform="translate(627.75 705.79) rotate(-167.71)"/><polygon class="cls-11" points="214.41 255.58 207.5 248.74 207.54 255.62 214.41 255.58"/><polygon class="cls-11" points="232.81 274.83 236.62 278.84 236.72 274.93 232.81 274.83"/><polygon class="cls-11" points="320.57 272.03 324.38 276.04 324.48 272.13 320.57 272.03"/><path class="cls-20" d="M1261.26,277.8H1264v5.46h-2.73Zm-3.16,7.83a3.15,3.15,0,0,0,3.15,3.15h0a3.15,3.15,0,0,1,3.15,3.15v4.5a1.37,1.37,0,0,0,1.37,1.37h0a1.37,1.37,0,0,0,1.37-1.37V270.88a1.11,1.11,0,0,0-1.59-1l-5.61,2.71a3.26,3.26,0,0,0-1.84,2.94Z" transform="translate(-63.44 -64.3)"/><circle class="cls-20" cx="937.27" cy="203.08" r="3.84"/><circle class="cls-20" cx="987.82" cy="206.32" r="3"/><rect class="cls-11" x="694.72" y="206.25" width="25.79" height="18.49"/><rect class="cls-11" x="854.75" y="233.04" width="11.41" height="9.99"/><rect class="cls-11" x="763.56" y="248.1" width="10.05" height="8.88"/><rect class="cls-11" x="901.34" y="265.84" width="13.06" height="11.54"/><rect class="cls-11" x="922.36" y="271.61" width="13.06" height="11.54"/><rect class="cls-11" x="1043.78" y="238.86" width="13.06" height="11.54"/><rect class="cls-11" x="1016.83" y="251.32" width="13.06" height="11.54"/><rect class="cls-11" x="953.75" y="304.52" width="5.98" height="29.15" transform="translate(574.2 1211.54) rotate(-90)"/><rect class="cls-11" x="731.11" y="217.44" width="16.57" height="7.63"/><rect class="cls-11" x="728.91" y="230.58" width="13.18" height="6.07"/><rect class="cls-11" x="1008.75" y="331.97" width="16.57" height="7.63" transform="translate(617.81 1288.53) rotate(-90)"/><rect class="cls-11" x="957.96" y="250.99" width="16.57" height="7.63"/><rect class="cls-11" x="750.6" y="221.25" width="13.13" height="12.36"/><rect class="cls-11" x="836" y="255.93" width="13.13" height="12.36"/><rect class="cls-11" x="706.05" y="194.43" width="8.8" height="8.28"/><rect class="cls-11" x="1034.42" y="223.29" width="8.8" height="8.28"/><rect class="cls-11" x="806.67" y="220.74" width="20.78" height="10.68"/><rect class="cls-11" x="800.78" y="259.09" width="11.77" height="6.05"/><rect class="cls-11" x="1081.42" y="211.92" width="25.1" height="11.03"/><rect class="cls-11" x="1050.31" y="224.04" width="16.78" height="3.38"/><rect class="cls-11" x="965.51" y="265.27" width="16.78" height="3.38"/><rect class="cls-11" x="1061.88" y="234.35" width="18.47" height="11.03"/><rect class="cls-11" x="838.3" y="216.71" width="18.47" height="11.03"/><rect class="cls-11" x="666.39" y="220.59" width="22.91" height="8.96"/><rect class="cls-11" x="810.64" y="206.02" width="20.95" height="6.61"/><rect class="cls-11" x="781.89" y="217.81" width="15.52" height="4.89"/><rect class="cls-11" x="918.18" y="252.54" width="27.71" height="12.23"/><rect class="cls-11" x="987.16" y="254.8" width="17.5" height="7.69"/><rect class="cls-11" x="768.33" y="224" width="7.23" height="5.19"/><rect class="cls-11" x="1154.51" y="251.76" width="14.46" height="10.37"/><rect class="cls-11" x="967.9" y="274.59" width="14.46" height="10.37"/><rect class="cls-11" x="866.82" y="262.49" width="10.44" height="7.49"/><rect class="cls-11" x="1171.36" y="240.02" width="7.33" height="6.47"/><rect class="cls-11" x="885.51" y="264.19" width="9.29" height="4.28"/><rect class="cls-11" x="783.48" y="260.72" width="9.29" height="4.28"/><rect class="cls-11" x="1114.05" y="259.99" width="9.29" height="4.28"/><rect class="cls-11" x="808.78" y="249.4" width="9.29" height="4.28"/><rect class="cls-11" x="1005.9" y="266.33" width="7.36" height="6.93"/><rect class="cls-11" x="820.67" y="257.18" width="7.36" height="6.93"/><rect class="cls-11" x="941.11" y="273.26" width="4.94" height="4.65"/><rect class="cls-11" x="1132.82" y="258.66" width="13.48" height="6.93"/><rect class="cls-11" x="743.87" y="244.92" width="13.48" height="6.93"/><rect class="cls-11" x="1101.82" y="228.8" width="13.48" height="6.93"/><rect class="cls-11" x="990.82" y="267.49" width="8" height="8"/><rect class="cls-11" x="1132.2" y="245.38" width="13.48" height="6.93"/><rect class="cls-11" x="1036.79" y="254.58" width="12.85" height="5.02"/><rect class="cls-11" x="998.78" y="247.15" width="11.75" height="3.7"/><rect class="cls-11" x="1100.64" y="204.17" width="11.75" height="3.7"/><rect class="cls-11" x="759.64" y="237.12" width="11.75" height="3.7"/><rect class="cls-11" x="1088.09" y="250.81" width="11.75" height="3.7"/><rect class="cls-11" x="1071.12" y="226.95" width="8.62" height="4.63"/><rect class="cls-11" x="1092.98" y="305.6" width="11.75" height="3.7" transform="translate(727.97 1342.01) rotate(-90)"/><rect class="cls-11" x="1065.24" y="251.32" width="11.75" height="3.7"/><rect class="cls-11" x="858.75" y="250.68" width="11.75" height="3.7"/><rect class="cls-27" x="797.62" y="238.03" width="51.65" height="6.1"/><rect class="cls-27" x="889.57" y="310.68" width="10.69" height="3.4" transform="translate(519.09 1143) rotate(-90)"/><rect class="cls-27" x="900.03" y="309.61" width="8.56" height="3.4" transform="translate(529.55 1151.32) rotate(-90)"/><rect class="cls-27" x="897.25" y="303.63" width="6.42" height="11.09" transform="translate(527.85 1145.34) rotate(-90)"/><path class="cls-27" d="M862,291.88H846.88L839.33,305,846.88,318H862L869.54,305Zm-7.55,18.54a5.46,5.46,0,1,1,5.46-5.46A5.46,5.46,0,0,1,854.44,310.42Z" transform="translate(-63.44 -64.3)"/><polygon class="cls-3" points="564.74 103.85 564.74 107.44 562.82 109.27 562.15 112.19 560.99 108.77 562.15 107.35 563.24 103.19 564.74 103.85"/><polygon class="cls-3" points="572.05 104.14 572.57 105.7 571.4 106.73 570.12 104.48 572.05 104.14"/><polygon class="cls-3" points="575.13 103.86 574.18 105.94 572.93 103.67 575.13 103.86"/><path class="cls-28" d="M389.5,106.79l3.89,3.89-4.58,4.58-5.31,5.31-5.31-5.31-4.58-4.58,3.89-3.89,4.58,4.58,1.41,1.41,1.41-1.41,4.58-4.58m0-2.83-6,6-6-6-6.72,6.72,6,6h0l6.72,6.72h0l6.72-6.72h0l6-6L389.5,104Z" transform="translate(-63.44 -64.3)"/><polygon class="cls-27" points="300.82 46.38 294.1 39.66 288.11 45.66 282.11 39.66 275.39 46.38 281.38 52.38 281.38 52.38 288.11 59.1 288.11 59.1 288.11 59.1 294.83 52.38 294.83 52.38 300.82 46.38"/><polygon class="cls-27" points="268.86 46.38 262.13 39.66 256.14 45.66 250.15 39.66 243.43 46.38 249.42 52.38 249.42 52.38 256.14 59.1 256.14 59.1 256.14 59.1 262.87 52.38 262.86 52.38 268.86 46.38"/><path class="cls-22" d="M929.93,225.34c4.41,0,8.9,0,13.26,0a9.79,9.79,0,0,0,5.6-2,9.94,9.94,0,0,0,3.43-4.89,11.11,11.11,0,0,0,.44-3v-3.32c0-.56,0-1.09,0-1.68a11.58,11.58,0,0,1,.17-1.79,11.41,11.41,0,0,1,1.14-3.41,11.59,11.59,0,0,1,5-5,11.84,11.84,0,0,1,5.19-1.3c.58,0,1.12,0,1.68,0l53.17.09,13.29,0c.55,0,1.12,0,1.65,0a9.88,9.88,0,0,0,1.53-.14,9.73,9.73,0,0,0,2.92-1,9.92,9.92,0,0,0,4.31-4.29,9.76,9.76,0,0,0,1-2.92,9.87,9.87,0,0,0,.15-1.54,16.28,16.28,0,0,1,.13-1.74,11.41,11.41,0,0,1,3-6.3,11.59,11.59,0,0,1,6.09-3.41,17.21,17.21,0,0,1,3.45-.23h3.32l53.17.09v1.23l-53.17.09h-3.32a15.83,15.83,0,0,0-3.17.21,10.14,10.14,0,0,0-5.31,3,10,10,0,0,0-2.61,5.5,14.52,14.52,0,0,0-.11,1.57,11.69,11.69,0,0,1-1.28,5.13,11.44,11.44,0,0,1-4.94,5,11.26,11.26,0,0,1-3.36,1.13,11.42,11.42,0,0,1-1.77.17c-.58,0-1.11,0-1.67,0l-13.29,0-53.17.09c-.55,0-1.12,0-1.65,0a9.72,9.72,0,0,0-1.52.15,9.61,9.61,0,0,0-2.87,1,9.77,9.77,0,0,0-4.23,4.24,9.58,9.58,0,0,0-1,2.87,9.73,9.73,0,0,0-.14,1.51c0,.52,0,1.1,0,1.65v3.32A13,13,0,0,1,954,219a11.83,11.83,0,0,1-4.06,5.84,11.71,11.71,0,0,1-6.69,2.43c-4.51.06-8.88,0-13.33.06Z" transform="translate(-63.44 -64.3)"/><polygon class="cls-11" points="1005.65 166.99 923.38 166.99 913.25 188.28 904.89 197.61 900.82 222.13 871.64 233.73 871.64 242.77 1026.82 242.77 1022.19 223.79 1008.22 218.85 1009.81 185.5 1005.65 166.99"/><path class="cls-20" d="M1065.88,231.09a1.71,1.71,0,0,0-1.71-1.71h-17.82a1.71,1.71,0,0,0-1.71,1.71v8.69a1.71,1.71,0,0,0,1.71,1.71h3a1.71,1.71,0,0,1,1.71,1.71v31.25a1.71,1.71,0,0,0,1.71,1.71h0a1.71,1.71,0,0,0,1.71-1.71v-.25a1.71,1.71,0,0,1,1.71-1.71h.54a1.71,1.71,0,0,1,1.71,1.71v20.45a1.71,1.71,0,0,0,1.71,1.71h.57a1.71,1.71,0,0,0,1.71-1.71v-30a1.71,1.71,0,0,1,1.71-1.71h0a1.71,1.71,0,0,0,1.71-1.71Zm-9.12,37.79h-.54a1.71,1.71,0,0,1-1.71-1.71v-2.51a1.71,1.71,0,0,1,1.71-1.71h.54a1.71,1.71,0,0,1,1.71,1.71v2.51A1.71,1.71,0,0,1,1056.76,268.88Z" transform="translate(-63.44 -64.3)"/><rect class="cls-3" x="952.66" y="105.45" width="13.04" height="61.02"/><path class="cls-9" d="M952.66,111.56h0a4.2,4.2,0,0,1,4.2,4.2v50.72a0,0,0,0,1,0,0h-4.2a0,0,0,0,1,0,0V111.56A0,0,0,0,1,952.66,111.56Z"/><path class="cls-9" d="M1029.38,230.77h-4.2V180.06a4.2,4.2,0,0,1,4.2-4.2h0" transform="translate(-63.44 -64.3)"/><rect class="cls-5" x="955.92" y="77.63" width="6.52" height="27.73"/><polygon class="cls-5" points="983.28 111.09 977.72 111.09 975.02 105.45 959.29 105.45 959.29 97.83 979.04 97.83 983.28 111.09"/><polygon class="cls-5" points="935.29 111.09 940.85 111.09 943.56 105.45 959.29 105.45 959.29 97.83 939.53 97.83 935.29 111.09"/><path class="cls-5" d="M1016.36,130.55h0a12.73,12.73,0,0,1,12.73,12.73v0a0,0,0,0,1,0,0h-12.73a0,0,0,0,1,0,0V130.55A0,0,0,0,1,1016.36,130.55Z" transform="translate(139.29 698.98) rotate(-45)"/><circle class="cls-7" cx="959.18" cy="73.87" r="2.14"/><circle class="cls-7" cx="959.18" cy="101.46" r="2.14"/><line class="cls-29" x1="955.92" y1="82.68" x2="962.44" y2="82.68"/><line class="cls-29" x1="955.92" y1="88.26" x2="962.44" y2="88.26"/><line class="cls-29" x1="955.92" y1="93.84" x2="962.44" y2="93.84"/><circle class="cls-22" cx="1372.71" cy="238.07" r="1.36"/><path class="cls-22" d="M1436.15,305.95a2.62,2.62,0,0,0-2.52,3.43l1.32,4.72h2.39l1.32-4.72a2.62,2.62,0,0,0-2.52-3.43Z" transform="translate(-63.44 -64.3)"/><circle class="cls-27" cx="1288.39" cy="258.48" r="1.51"/><path class="cls-27" d="M1351.83,326.77a2.92,2.92,0,0,0-2.81,3.82l1.48,5.27h2.66l1.48-5.27a2.92,2.92,0,0,0-2.81-3.82Z" transform="translate(-63.44 -64.3)"/><polygon class="cls-22" points="1209.87 254.24 1220.14 231.3 1230.42 254.24 1209.87 254.24"/><polygon class="cls-22" points="1240.74 273.4 1248.47 256.12 1256.21 273.4 1240.74 273.4"/><circle class="cls-3" cx="1386.41" cy="228.43" r="1.36"/><path class="cls-3" d="M1449.85,296.31a2.62,2.62,0,0,0-2.52,3.43l1.32,4.72H1451l1.32-4.72a2.62,2.62,0,0,0-2.52-3.43Z" transform="translate(-63.44 -64.3)"/><circle class="cls-27" cx="1299.76" cy="254.21" r="1.51"/><path class="cls-27" d="M1363.2,322.5a2.92,2.92,0,0,0-2.81,3.82l1.48,5.27h2.66l1.48-5.27a2.92,2.92,0,0,0-2.81-3.82Z" transform="translate(-63.44 -64.3)"/><circle class="cls-27" cx="1270.38" cy="252.03" r="1.51"/><path class="cls-27" d="M1333.82,320.32a2.92,2.92,0,0,0-2.81,3.82l1.48,5.27h2.66l1.48-5.27a2.92,2.92,0,0,0-2.81-3.82Z" transform="translate(-63.44 -64.3)"/><path class="cls-3" d="M737.4,191.48h1.32a4.58,4.58,0,0,1,4.58,4.58v1.32a0,0,0,0,1,0,0H742a4.58,4.58,0,0,1-4.58-4.58v-1.32A0,0,0,0,1,737.4,191.48Z"/><path class="cls-3" d="M1032.47,138.41h1.32a4.58,4.58,0,0,1,4.58,4.58v1.32a0,0,0,0,1,0,0H1037a4.58,4.58,0,0,1-4.58-4.58v-1.32A0,0,0,0,1,1032.47,138.41Z"/><path class="cls-21" d="M781,280.75h1.32a4.58,4.58,0,0,1,4.58,4.58v1.32a0,0,0,0,1,0,0h-1.32a4.58,4.58,0,0,1-4.58-4.58v-1.32A0,0,0,0,1,781,280.75Z" transform="translate(1004.2 -564.54) rotate(90)"/><path class="cls-3" d="M805.83,114.68h1.32a4.58,4.58,0,0,1,4.58,4.58v1.32a0,0,0,0,1,0,0h-1.32a4.58,4.58,0,0,1-4.58-4.58v-1.32A0,0,0,0,1,805.83,114.68Z"/><path class="cls-20" d="M920.41,140.23h1.32a4.58,4.58,0,0,1,4.58,4.58v1.32a0,0,0,0,1,0,0H925a4.58,4.58,0,0,1-4.58-4.58v-1.32A0,0,0,0,1,920.41,140.23Z"/><path class="cls-20" d="M821.09,171.35h1.32a4.58,4.58,0,0,1,4.58,4.58v1.32a0,0,0,0,1,0,0h-1.32a4.58,4.58,0,0,1-4.58-4.58v-1.32A0,0,0,0,1,821.09,171.35Z"/><path class="cls-20" d="M1141.91,217.56h1.32a4.58,4.58,0,0,1,4.58,4.58v1.32a0,0,0,0,1,0,0h-1.32a4.58,4.58,0,0,1-4.58-4.58v-1.32A0,0,0,0,1,1141.91,217.56Z" transform="translate(1301.93 -988.64) rotate(90)"/><path class="cls-30" d="M1062.65,212.64h-5.75A18.35,18.35,0,0,0,1038.54,231h0" transform="translate(-63.44 -64.3)"/><path class="cls-3" d="M462.45,87.16c.28-.62.73-.62,1,0l1.65,3.73A2.08,2.08,0,0,0,466.85,92h3.45c.68,0,.85.4.38.89l-2.57,2.65a2.75,2.75,0,0,0-.65,2.12l.59,3.47c.12.67-.29,1-.89.65L464,100.16a2.65,2.65,0,0,0-2.2,0l-3.11,1.64c-.6.32-1,0-.89-.65l.59-3.47a2.76,2.76,0,0,0-.66-2.12l-2.57-2.65c-.48-.49-.31-.89.38-.89h3.46a2.08,2.08,0,0,0,1.74-1.14Z" transform="translate(-63.44 -64.3)"/><rect x="445.41" y="33.02" width="14.74" height="14.74"/><rect class="cls-7" x="451.49" y="119.71" width="6.93" height="6.93" transform="translate(-17.29 293.48) rotate(-45)"/><rect class="cls-7" x="530.38" y="83.23" width="6.93" height="6.93" transform="translate(31.62 338.58) rotate(-45)"/><rect class="cls-7" x="568.42" y="105.59" width="6.93" height="6.93" transform="translate(26.95 372.02) rotate(-45)"/><rect class="cls-22" x="445.2" y="47.76" width="40.62" height="6.15"/><polygon class="cls-22" points="426.95 44.32 426.95 47.76 426.95 51.21 426.95 54.28 425.4 54.28 425.4 45.55 411.67 45.55 411.67 55.11 407.54 55.11 407.54 60.32 416.78 60.32 416.78 55.14 425.24 55.14 425.24 56.98 428.65 56.98 428.65 55.18 430.36 55.18 430.36 51.21 432.16 51.21 432.16 44.32 426.95 44.32"/><polygon class="cls-22" points="422.33 61.13 411.67 61.13 411.67 66.74 423.17 66.74 423.17 64.55 431.56 64.55 431.56 58.94 422.33 58.94 422.33 61.13"/><rect class="cls-20" x="429.27" y="41.98" width="2.89" height="2.35"/><rect class="cls-20" x="404.09" y="57.02" width="3.42" height="3.71"/><rect class="cls-20" x="411.67" y="42.03" width="11.11" height="3.71"/><rect class="cls-7" x="478.52" y="115.16" width="8.15" height="14.99" transform="translate(541.81 -424.24) rotate(90)"/><rect class="cls-27" x="468.32" y="128.54" width="8.15" height="5.42" transform="translate(540.21 -405.44) rotate(90)"/><rect class="cls-27" x="493.64" y="121.91" width="8.15" height="5.42" transform="translate(558.89 -437.39) rotate(90)"/><polygon class="cls-22" points="99.65 70.4 117.14 68.61 120.51 65.32 119.73 57.74 117.27 55.05 98.28 56.99 99.65 70.4"/><rect class="cls-3" x="162.24" y="122.71" width="17.58" height="6.45" transform="translate(290.58 169.45) rotate(174.14)"/><rect class="cls-3" x="144.75" y="124.51" width="17.58" height="6.45" transform="translate(-75.68 -47.95) rotate(-5.86)"/><polygon class="cls-3" points="65.36 69.21 81.68 67.54 81.02 61.12 63.53 62.92 65.36 69.21"/><polygon class="cls-22" points="65.36 69.21 66.86 69.06 81.68 67.54 81.47 65.5 63.98 67.29 65.36 69.21"/><polygon class="cls-22" points="84.89 70.09 99.47 68.59 98.81 62.24 81.32 64.04 81.82 68.85 84.89 70.09"/><rect class="cls-3" x="181.22" y="121.52" width="2.76" height="6.45" transform="translate(313.55 165.9) rotate(174.14)"/><polygon class="cls-31" points="123.6 65.24 160.91 55.89 160.91 55.89 122.95 54.51 120.21 57.1 120.87 63.51 123.6 65.24"/><rect class="cls-3" x="156.72" y="144.22" width="7.27" height="2.29" transform="translate(271.28 209.29) rotate(174.14)"/><rect class="cls-22" x="162.01" y="104.05" width="10.2" height="2.29" transform="translate(280.65 128.48) rotate(174.14)"/><rect class="cls-22" x="163.47" y="135.53" width="11.87" height="0.56" transform="translate(288.37 189.31) rotate(174.14)"/><rect class="cls-22" x="165.09" y="125.65" width="11.87" height="0.56" transform="translate(290.58 169.45) rotate(174.14)"/><rect class="cls-22" x="166.39" y="127" width="6.01" height="0.56" transform="translate(-75.55 -46.33) rotate(-5.86)"/><rect class="cls-22" x="174.06" y="126.41" width="2.2" height="0.56" transform="translate(-75.46 -45.75) rotate(-5.86)"/><rect class="cls-22" x="166.14" y="124.57" width="6.01" height="0.56" transform="translate(-75.3 -46.37) rotate(-5.86)"/><rect class="cls-22" x="173" y="123.86" width="6.01" height="0.56" transform="translate(-75.19 -45.68) rotate(-5.86)"/><rect class="cls-22" x="165.49" y="112.82" width="11.87" height="0.56" transform="translate(290.06 143.8) rotate(174.14)"/><rect class="cls-22" x="163.96" y="143.67" width="3.44" height="2.29" transform="translate(-77.36 -46.62) rotate(-5.86)"/><polygon class="cls-3" points="98.84 79.72 103.31 79.26 111.12 69.23 103.73 69.99 98.84 79.72"/><polygon class="cls-22" points="101.97 76.45 106.79 70.26 104.46 70.5 101.44 76.5 101.97 76.45"/><polygon class="cls-22" points="114.51 55.33 109.74 55.82 109.17 50.28 111.03 50.09 114.51 55.33"/><polygon class="cls-3" points="111.49 55.64 102.36 56.58 100.66 40.06 106.88 39.42 111.49 55.64"/><polygon class="cls-22" points="105.13 55.14 103.87 55.27 102.41 41.03 103.27 40.94 105.13 55.14"/><line class="cls-32" x1="99.03" y1="41.37" x2="91.55" y2="42.14"/><line class="cls-32" x1="64.68" y1="64.94" x2="60.91" y2="65.15"/><line class="cls-32" x1="94.29" y1="81.33" x2="86.81" y2="82.1"/><rect class="cls-22" x="137.08" y="127.09" width="1.17" height="1.96" transform="translate(224.25 177.13) rotate(174.14)"/><rect class="cls-22" x="134.46" y="127.36" width="1.17" height="1.96" transform="translate(219.04 177.93) rotate(174.14)"/><rect class="cls-22" x="131.83" y="127.63" width="1.17" height="1.96" transform="translate(213.84 178.74) rotate(174.14)"/><polygon class="cls-22" points="68.59 66.23 65.79 67.69 76.05 66.64 73.02 65.77 68.59 66.23"/><rect class="cls-22" x="139.7" y="126.83" width="1.17" height="1.96" transform="translate(229.46 176.32) rotate(174.14)"/><circle class="cls-3" cx="158.79" cy="130.1" r="1.47" transform="translate(-75.89 -47.4) rotate(-5.86)"/><rect class="cls-11" x="88.44" y="233.03" width="75.24" height="7.74"/><rect class="cls-11" x="179.19" y="300.09" width="43.99" height="7.74" transform="translate(-166.21 440.85) rotate(-90)"/><rect class="cls-11" x="129.88" y="300.09" width="43.99" height="7.74" transform="translate(-215.52 391.54) rotate(-90)"/><rect class="cls-11" x="126.28" y="309.1" width="25.97" height="7.74" transform="translate(-237.15 387.93) rotate(-90)"/><rect class="cls-11" x="219.3" y="305.59" width="32.99" height="7.74" transform="translate(-137.1 480.95) rotate(-90)"/><polygon class="cls-11" points="164.62 261.88 170.29 223.74 162.58 223.03 156.91 261.17 164.62 261.88"/><rect class="cls-11" x="141.21" y="315.29" width="62.01" height="7.74" transform="translate(246.13 590.51) rotate(-173.9)"/><path class="cls-20" d="M184.81,296.43H173.37a1.35,1.35,0,0,0-1.35,1.35v15.33a1.35,1.35,0,0,0,1.35,1.35H174a1.35,1.35,0,0,0,1.35-1.35V306.8a1.35,1.35,0,0,1,1.35-1.35h.64a1.35,1.35,0,0,1,1.35,1.35v11.43a1.35,1.35,0,0,0,1.35,1.35h0a1.35,1.35,0,0,0,1.35-1.35v-4.57a1.35,1.35,0,0,1,1.35-1.35h.69a1.35,1.35,0,0,1,1.35,1.35v2.4a1.35,1.35,0,0,0,1.35,1.35h.64a1.35,1.35,0,0,0,1.35-1.35v-2.2H190v2.2a1.35,1.35,0,0,0,1.35,1.35H192a1.35,1.35,0,0,0,1.35-1.35V297.78a1.35,1.35,0,0,0-1.35-1.35Zm-1.35,14h-.69a1.35,1.35,0,0,1-1.35-1.35V306.8a1.35,1.35,0,0,1,1.35-1.35h.69a1.35,1.35,0,0,1,1.35,1.35v2.28A1.35,1.35,0,0,1,183.46,310.43Z" transform="translate(-63.44 -64.3)"/><polygon class="cls-3" points="1237.24 192.09 1215.54 184.84 1215.29 179.4 1231.37 180.65 1237.24 192.09"/><path class="cls-3" d="M1131,169.18h1.32a4.58,4.58,0,0,1,4.58,4.58v1.32a0,0,0,0,1,0,0h-1.32a4.58,4.58,0,0,1-4.58-4.58v-1.32A0,0,0,0,1,1131,169.18Z"/><path class="cls-7" d="M976.7,142.48H978a4.58,4.58,0,0,1,4.58,4.58v1.32a0,0,0,0,1,0,0h-1.32a4.58,4.58,0,0,1-4.58-4.58v-1.32A0,0,0,0,1,976.7,142.48Z"/><path class="cls-33" d="M740.67,320.1c.68-.39,0-1.66.63-2s1.41.88,2.09.49,0-1.66.63-2,1.41.88,2.09.49,0-1.66.63-2,1.41.88,2.09.49,0-1.66.63-2" transform="translate(-63.44 -64.3)"/><polyline class="cls-34" points="685.85 249.95 706.39 238.24 717 245.52"/><path class="cls-35" d="M790.35,313.73a5.21,5.21,0,1,0-3.3,4.2" transform="translate(-63.44 -64.3)"/><circle class="cls-22" cx="780.88" cy="310.12" r="3" transform="translate(19.75 713.99) rotate(-55.52)"/><circle class="cls-7" cx="780.88" cy="310.12" r="1.03" transform="translate(19.75 713.99) rotate(-55.52)"/><circle class="cls-22" cx="45.56" cy="254.67" r="1.36"/><path class="cls-22" d="M109,322.55a2.62,2.62,0,0,0-2.52,3.43l1.32,4.72h2.39l1.32-4.72a2.62,2.62,0,0,0-2.52-3.43Z" transform="translate(-63.44 -64.3)"/><circle class="cls-3" cx="56.53" cy="241.28" r="1.36"/><path class="cls-3" d="M120,309.16a2.62,2.62,0,0,0-2.52,3.43l1.32,4.72h2.39l1.32-4.72a2.62,2.62,0,0,0-2.52-3.43Z" transform="translate(-63.44 -64.3)"/><rect class="cls-22" x="172.67" y="266.15" width="7.12" height="5.22"/><rect class="cls-22" x="184.75" y="272.15" width="7.12" height="5.22"/><rect class="cls-36" x="168.8" y="275.73" width="7.12" height="5.22"/><rect class="cls-22" x="141.74" y="276.23" width="7.12" height="5.22"/><rect class="cls-36" x="189.17" y="253.01" width="7.12" height="5.22"/><rect class="cls-22" x="197.28" y="244.57" width="7.12" height="5.22"/><rect class="cls-22" x="122.5" y="269.54" width="7.12" height="5.22"/><rect class="cls-36" x="149.8" y="266.07" width="7.12" height="5.22"/><circle class="cls-7" cx="569.85" cy="246.65" r="1.51"/><path class="cls-7" d="M633.29,314.94a2.92,2.92,0,0,0-2.81,3.82L632,324h2.66l1.48-5.27a2.92,2.92,0,0,0-2.81-3.82Z" transform="translate(-63.44 -64.3)"/><circle class="cls-7" cx="533.98" cy="238.47" r="1.51"/><path class="cls-7" d="M597.41,306.76a2.92,2.92,0,0,0-2.81,3.82l1.48,5.27h2.66l1.48-5.27a2.92,2.92,0,0,0-2.81-3.82Z" transform="translate(-63.44 -64.3)"/><circle class="cls-7" cx="584.4" cy="234.82" r="1.51"/><path class="cls-7" d="M647.84,303.11a2.92,2.92,0,0,0-2.81,3.82l1.48,5.27h2.66l1.48-5.27a2.92,2.92,0,0,0-2.81-3.82Z" transform="translate(-63.44 -64.3)"/><path class="cls-7" d="M709.36,137.75c40.3,0,51.69,31.44,51.69,71.52,0,39.67-11.39,70.89-51.69,70.89-40.72,0-52.54-31.23-52.54-70.89C656.83,169.19,668.64,137.75,709.36,137.75Zm0,109.92c13.29,0,17.93-17.3,17.93-38.4,0-21.31-4.64-38.82-17.93-38.82-13.71,0-18.78,17.51-18.78,38.82C690.59,230.37,695.65,247.67,709.36,247.67Z" transform="translate(-63.44 -64.3)"/><path class="cls-7" d="M828.35,137.75c40.3,0,51.69,31.44,51.69,71.52,0,39.67-11.39,70.89-51.69,70.89-40.72,0-52.54-31.23-52.54-70.89C775.82,169.19,787.63,137.75,828.35,137.75Zm0,109.92c13.29,0,17.93-17.3,17.93-38.4,0-21.31-4.64-38.82-17.93-38.82-13.71,0-18.78,17.51-18.78,38.82C809.58,230.37,814.64,247.67,828.35,247.67Z" transform="translate(-63.44 -64.3)"/><path class="cls-7" d="M1001.56,295.78c9.71-13.29,16.46-24.47,16.46-50.85h29.75c0,31.65-18.36,50.43-28.9,59.29Z" transform="translate(-63.44 -64.3)"/><path class="cls-7" d="M1234.9,137.75c40.3,0,51.69,31.44,51.69,71.52,0,39.67-11.39,70.89-51.69,70.89-40.72,0-52.54-31.23-52.54-70.89C1182.37,169.19,1194.18,137.75,1234.9,137.75Zm0,109.92c13.29,0,17.93-17.3,17.93-38.4,0-21.31-4.64-38.82-17.93-38.82-13.71,0-18.78,17.51-18.78,38.82C1216.12,230.37,1221.19,247.67,1234.9,247.67Z" transform="translate(-63.44 -64.3)"/><polygon class="cls-3" points="1185.2 83.52 1190.38 95.98 1181.93 104.18 1170.9 97.9 1175.23 89.57 1173.21 72.42 1181.93 72.42 1185.2 83.52"/><polygon class="cls-5" points="1188.49 85.97 1172.43 85.33 1172.67 79.58 1188.73 80.22 1188.49 85.97"/><path class="cls-3" d="M1208.7,298.53h-22.65V280.7a17.83,17.83,0,0,1,17.83-17.83h0a17.83,17.83,0,0,1,17.83,17.83V288l-13,4.62Z" transform="translate(-63.44 -64.3)"/><circle class="cls-5" cx="1139.56" cy="219.77" r="4.65"/><circle class="cls-5" cx="1124.91" cy="219.77" r="4.13"/><polygon class="cls-5" points="1127.13 229.35 1131.11 225.37 1135.09 229.35 1127.13 229.35"/><rect class="cls-3" x="1122.61" y="231.28" width="2.58" height="5.91"/><rect class="cls-3" x="1127.63" y="231.28" width="2.58" height="5.91"/><rect class="cls-3" x="1132.64" y="231.28" width="2.58" height="5.91"/><rect class="cls-3" x="1137.66" y="231.28" width="2.58" height="5.91"/><rect class="cls-3" x="1142.67" y="231.28" width="2.58" height="5.91"/><rect class="cls-3" x="1231.57" y="271.7" width="4.33" height="35.93" transform="translate(502.74 -851.84) rotate(45)"/><path class="cls-3" d="M1244.77,272.82h3.14a0,0,0,0,1,0,0v5.62a0,0,0,0,1,0,0h-3.14a2.48,2.48,0,0,1-2.48-2.48v-.66A2.48,2.48,0,0,1,1244.77,272.82Z" transform="translate(1457.29 -1033.77) rotate(90)"/><path class="cls-3" d="M1247.45,275.5h.66a2.48,2.48,0,0,1,2.48,2.48v3.14a0,0,0,0,1,0,0H1245a0,0,0,0,1,0,0V278A2.48,2.48,0,0,1,1247.45,275.5Z" transform="translate(1462.65 -1033.77) rotate(90)"/><path class="cls-3" d="M1216.89,298.22h5.62a0,0,0,0,1,0,0v3.14a2.48,2.48,0,0,1-2.48,2.48h-.66a2.48,2.48,0,0,1-2.48-2.48v-3.14A0,0,0,0,1,1216.89,298.22Z" transform="translate(1457.29 -982.96) rotate(90)"/><path class="cls-3" d="M1219.57,300.9h3.14a2.48,2.48,0,0,1,2.48,2.48V304a2.48,2.48,0,0,1-2.48,2.48h-3.14a0,0,0,0,1,0,0V300.9A0,0,0,0,1,1219.57,300.9Z" transform="translate(1462.65 -982.96) rotate(90)"/><rect class="cls-3" x="1165.49" y="288.45" width="4.33" height="35.93" transform="translate(1727.34 -791.81) rotate(106.37)"/><path class="cls-3" d="M1185.09,306.86h3.14a0,0,0,0,1,0,0v5.62a0,0,0,0,1,0,0h-3.14a2.48,2.48,0,0,1-2.48-2.48v-.66A2.48,2.48,0,0,1,1185.09,306.86Z" transform="translate(2310.85 -50.79) rotate(151.37)"/><path class="cls-3" d="M1184,310.49h.66a2.48,2.48,0,0,1,2.48,2.48v3.14a0,0,0,0,1,0,0h-5.62a0,0,0,0,1,0,0V313A2.48,2.48,0,0,1,1184,310.49Z" transform="translate(2310.59 -43.45) rotate(151.37)"/><path class="cls-3" d="M1148.14,296.73h5.62a0,0,0,0,1,0,0v3.14a2.48,2.48,0,0,1-2.48,2.48h-.66a2.48,2.48,0,0,1-2.48-2.48v-3.14A0,0,0,0,1,1148.14,296.73Z" transform="translate(2241.27 -53.29) rotate(151.37)"/><path class="cls-3" d="M1147.07,300.36h3.14a2.48,2.48,0,0,1,2.48,2.48v.66a2.48,2.48,0,0,1-2.48,2.48h-3.14a0,0,0,0,1,0,0v-5.62A0,0,0,0,1,1147.07,300.36Z" transform="translate(2241 -45.95) rotate(151.37)"/><polygon class="cls-5" points="746.19 153.28 742.25 154.78 741.33 156.57 741.97 157.93 743.87 158.55 745.41 158.38 746.1 156.27 747.47 154.14 746.19 153.28"/><polygon class="cls-9" points="747.5 150.01 742.17 152.51 739.99 155.46 741.42 157.75 750.62 154.04 747.5 150.01"/><polygon class="cls-5" points="740.54 155.44 737.08 158.78 737.72 160.48 742.47 156.61 740.54 155.44"/><polygon class="cls-3" points="737.23 159.18 732.73 164.68 733.15 164.82 738.27 159.52 737.23 159.18"/><polygon class="cls-5" points="743.73 150.04 743.07 149.15 738.17 155.85 738.44 156.28 743.03 150.49 743.73 150.04"/><polygon class="cls-3" points="742.57 152.75 741.62 151.52 740.18 153.63 740.88 154.7 742.57 152.75"/><path class="cls-22" d="M900.46,246.06h-11a4,4,0,0,0-3.84,3.13,4.63,4.63,0,0,0-.11.89c0,.37,0,.72,0,1.18a5.76,5.76,0,0,1-.78,2.46,5.9,5.9,0,0,1-4.14,2.86,16,16,0,0,1-2.34.08h-6.6l-8.8,0h-2.2a4.42,4.42,0,0,0-1.82.32,4.21,4.21,0,0,0-2.37,2.64,11.17,11.17,0,0,0-.25,2.06,5.8,5.8,0,0,1-5.18,4.91l-.63,0h-8.25l-35.2-.09c-1.44,0-3,0-4.35,0a4.3,4.3,0,0,0-3.21,1.79,4.16,4.16,0,0,0-.74,1.73,18.07,18.07,0,0,0-.1,2.12,5.64,5.64,0,0,1-2.33,4.22,5.53,5.53,0,0,1-2.27,1,6.77,6.77,0,0,1-1.22.1h-5.5l-8.8,0v-1.23l8.8,0h5.5a5.4,5.4,0,0,0,1-.08,4.22,4.22,0,0,0,1.74-.76,4.31,4.31,0,0,0,1.77-3.24,17.58,17.58,0,0,1,.1-2.27,5.51,5.51,0,0,1,1-2.29,5.67,5.67,0,0,1,4.22-2.38c1.56,0,3,0,4.45,0l35.2-.09h8.25l.47,0a4.16,4.16,0,0,0,3.7-3.54,11.54,11.54,0,0,1,.29-2.29,5.89,5.89,0,0,1,3.31-3.72,6.15,6.15,0,0,1,2.48-.47h2.2l8.8,0h6.6a15.29,15.29,0,0,0,2-.07,4.08,4.08,0,0,0,2.86-2,3.93,3.93,0,0,0,.53-1.7c0-.27,0-.66,0-1a6.48,6.48,0,0,1,.13-1.29,6,6,0,0,1,5.59-4.7c.8,0,1.48,0,2.23,0h8.8Z" transform="translate(-63.44 -64.3)"/><path class="cls-20" d="M711.9,161.24H711a.72.72,0,0,1-.72-.72v-3.26a.72.72,0,0,1,.72-.72h.91a.72.72,0,0,1,.72.72v3.26A.72.72,0,0,1,711.9,161.24Zm-11.12-22.12V163.6a.9.9,0,0,0,.85.95h1.09a.9.9,0,0,1,.85.95v11.05c0,.52.38,3.17.85,3.17h3a.9.9,0,0,0,.85-.95V167a.9.9,0,0,1,.85-.95h2.34a.9.9,0,0,1,.85.95v3a.9.9,0,0,0,.85.95h0A.9.9,0,0,0,714,170v-4.49a.9.9,0,0,1,.85-.95h1.81a.9.9,0,0,1,.85.95V181a.9.9,0,0,0,.85.95h3a.9.9,0,0,0,.85-.95V139.12c0-.52-8.53-1.37-10.74-1.33l-5.42,0C705.62,137.75,700,137.75,700.78,139.12Z" transform="translate(-63.44 -64.3)"/><path class="cls-22" d="M895.83,208.07a10.52,10.52,0,0,1-5-1.35,10.29,10.29,0,0,1-3.69-3.59,10,10,0,0,1-1.47-4.91l0-1.16c0-.36-.09-.71-.14-1.07a8.65,8.65,0,0,0-3.47-5.32,8.75,8.75,0,0,0-4-1.51c-.7-.06-1.51-.06-2.3-.06l-2.37,0-4.74,0V187.8l4.74,0,2.37,0c.79,0,1.56,0,2.43,0a10.16,10.16,0,0,1,9,7.91,12.84,12.84,0,0,1,.19,1.28l.07,1.21a8.21,8.21,0,0,0,1.3,4,8.46,8.46,0,0,0,3.09,2.89,8.59,8.59,0,0,0,4.08,1Z" transform="translate(-63.44 -64.3)"/><path class="cls-20" d="M802.08,116h1.32a4.58,4.58,0,0,1,4.58,4.58v1.32a0,0,0,0,1,0,0h-1.32a4.58,4.58,0,0,1-4.58-4.58V116A0,0,0,0,1,802.08,116Z"/><path class="cls-20" d="M735.08,192h1.32a4.58,4.58,0,0,1,4.58,4.58v1.32a0,0,0,0,1,0,0h-1.32a4.58,4.58,0,0,1-4.58-4.58V192A0,0,0,0,1,735.08,192Z"/><path class="cls-22" d="M1201.87,230.06l-14.27,0a12.1,12.1,0,0,1-3.73-.36,8.86,8.86,0,0,1-3.37-1.82,9.13,9.13,0,0,1-3.19-6.79,7.73,7.73,0,0,0-5.38-7.4l-.79-.2-.8-.11-.82,0h-.89l-14.27,0-57.1.1v-2l57.1.29,14.27.07c.58,0,1.19,0,1.85.05.32,0,.64.09,1,.14l.94.25a9.19,9.19,0,0,1,6.35,8.81,7.73,7.73,0,0,0,2.66,5.76,7.5,7.5,0,0,0,2.85,1.56,10.79,10.79,0,0,0,3.35.33l14.27,0Z" transform="translate(-63.44 -64.3)"/><path class="cls-3" d="M1135,168.65h1.32a4.58,4.58,0,0,1,4.58,4.58v1.32a0,0,0,0,1,0,0h-1.32A4.58,4.58,0,0,1,1135,170v-1.32A0,0,0,0,1,1135,168.65Z"/><path class="cls-20" d="M1116.83,211.34h-9.55v21.27h2.53v-2.29a1.61,1.61,0,0,1,1.61-1.61h0a1.61,1.61,0,0,1,1.61,1.61v11.4h1.39v-13h2.4v5.08a1.61,1.61,0,0,0,1.61,1.61H1120a1.61,1.61,0,0,0,1.61-1.61V213a1.61,1.61,0,0,0-1.61-1.61Z" transform="translate(-63.44 -64.3)"/><path class="cls-22" d="M866.12,255.76h-.5v-.66l-.1-.67-.16-.66-.23-.64a6.78,6.78,0,0,0-1.53-2.24,6.9,6.9,0,0,0-5-1.93l-11.66-.1a.31.31,0,0,1,0-.61l11.66-.1a7.71,7.71,0,0,1,7.4,4.6l.28.73.2.75.12.77,0,.39v.36h0C866.4,255.76,867.12,255.76,866.12,255.76Z" transform="translate(-63.44 -64.3)"/><path class="cls-22" d="M835.39,267h.5v.29l0,.31c0,.21-.06.41-.09.62a6.44,6.44,0,0,1-.34,1.2,7.12,7.12,0,0,1-1.26,2.12,7,7,0,0,1-4.23,2.35,8,8,0,0,1-1.22.09h-1.16l-2.32,0-4.64,0a.31.31,0,0,1,0-.61l4.64,0,2.32,0a13.35,13.35,0,0,0,2.25-.12,6.14,6.14,0,0,0,4.72-4,5.49,5.49,0,0,0,.27-1c0-.18.06-.35.07-.53V267h.5Z" transform="translate(-63.44 -64.3)"/><path class="cls-20" d="M838.25,270.67h1.32a4.58,4.58,0,0,1,4.58,4.58v1.32a0,0,0,0,1,0,0h-1.32a4.58,4.58,0,0,1-4.58-4.58v-1.32A0,0,0,0,1,838.25,270.67Z" transform="translate(1051.38 -631.87) rotate(90)"/></svg>